<svg xmlns="http://www.w3.org/2000/svg" version="1.1" xmlns:xlink="http://www.w3.org/1999/xlink" xmlns:svgjs="http://svgjs.dev/svgjs" width="1500" height="1500" viewBox="0 0 1500 1500"><rect width="1500" height="1500" fill="#000000"></rect><g transform="matrix(0.6666666666666666,0,0,0.6666666666666666,249.39393939393938,554.6820349159246)"><svg viewBox="0 0 396 155" data-background-color="#000000" preserveAspectRatio="xMidYMid meet" height="587" width="1500" xmlns="http://www.w3.org/2000/svg" xmlns:xlink="http://www.w3.org/1999/xlink"><g id="tight-bounds" transform="matrix(1,0,0,1,0.2400000000000091,-0.1381143406345302)"><svg viewBox="0 0 395.52 155.27622868126906" height="155.27622868126906" width="395.52"><g><svg viewBox="0 0 397.4975999999999 156.0526098246754" height="155.27622868126906" width="395.52"><g></g><g transform="matrix(1,0,0,1,0.9887999999999693,103.05160479954975)"><svg viewBox="0 0 395.52 53.00100502512563" height="53.00100502512563" width="395.52"><g id="textblocktransform"><svg viewBox="0 0 395.52 53.00100502512563" height="53.00100502512563" width="395.52" id="textblock"><g><svg viewBox="0 0 395.52 53.00100502512563" height="53.00100502512563" width="395.52"><g transform="matrix(1,0,0,1,0,0)"><svg width="395.52" viewBox="0.54 -40.5 306.04999999999995 41.01" height="53.00100502512563" data-palette-color="url(#96be3e11-4adf-4727-90ed-925a7e0ad7de)"></svg></g></svg></g></svg></g></svg></g><g transform="matrix(1,0,0,1,154.126415029161,0)"><svg viewBox="0 0 89.24476994167792 73.24738894472362" height="73.24738894472362" width="89.24476994167792"><g><svg xmlns="http://www.w3.org/2000/svg" xmlns:xlink="http://www.w3.org/1999/xlink" version="1.1" x="8" y="0" viewBox="0.0022005525735069864 0 99.9954244775228 99.999" enable-background="new 0 0 100 100" xml:space="preserve" height="73.24738894472362" width="73.24476994167792" class="icon-icon-0" data-fill-palette-color="accent" id="icon-0"></svg></g></svg></g><g></g></svg></g><defs></defs><mask id="dfff5be6-c077-4b4f-909e-3af13c8abe64"><g id="SvgjsG1576"><svg viewBox="0 0 395.52 155.27622868126906" height="155.27622868126906" width="395.52"><g><svg viewBox="0 0 397.4975999999999 156.0526098246754" height="155.27622868126906" width="395.52"><g><rect width="397.4975999999999" height="4.779685330203016" x="0" y="85.75965420703518" fill="black" opacity="1" stroke-width="0" stroke="transparent" fill-opacity="1" class="rect-qz-0" rx="1%" id="SvgjsRect1575" data-palette-color="url(#99f43863-4e1e-4cab-a283-1aaa4008967f)"></rect></g><g transform="matrix(1,0,0,1,0.9887999999999693,103.05160479954975)"><svg viewBox="0 0 395.52 53.00100502512563" height="53.00100502512563" width="395.52"><g id="SvgjsG1574"><svg viewBox="0 0 395.52 53.00100502512563" height="53.00100502512563" width="395.52" id="SvgjsSvg1573"><g><svg viewBox="0 0 395.52 53.00100502512563" height="53.00100502512563" width="395.52"><g transform="matrix(1,0,0,1,0,0)"><svg width="395.52" viewBox="0.54 -40.5 306.04999999999995 41.01" height="53.00100502512563" data-palette-color="url(#96be3e11-4adf-4727-90ed-925a7e0ad7de)"><path d="M14.18 0L0.54-28.83 8.91-28.83 16.41-11.5 18.6-6.64 21.29-12.94 14.16-28.83 21.19-28.83 24.68-20.29 28.17-28.83 35.21-28.83 28.05-12.94 30.76-6.64 32.96-11.5 40.45-28.83 48.83-28.83 35.18 0 27.32 0 24.68-5.57 22.05 0 14.18 0ZM53.88 0L53.88-28.81 61.11-28.81 61.11-24.66Q63.5-26.44 66.16-27.73 68.82-29.03 71.46-29.71L71.46-29.71 73.58-23.1Q69.41-22.68 66.25-21.23 63.08-19.78 61.11-17.14L61.11-17.14 61.11 0 53.88 0ZM82.76-32.74L82.76-32.74Q81.68-32.74 80.82-33.04 79.95-33.35 79.34-33.87 78.73-34.4 78.4-35.1 78.07-35.79 78.07-36.57L78.07-36.57Q78.07-37.38 78.4-38.07 78.73-38.77 79.34-39.28 79.95-39.79 80.82-40.1 81.68-40.41 82.76-40.41L82.76-40.41Q83.86-40.41 84.72-40.1 85.59-39.79 86.2-39.28 86.81-38.77 87.14-38.07 87.47-37.38 87.47-36.57L87.47-36.57Q87.47-35.79 87.14-35.1 86.81-34.4 86.2-33.87 85.59-33.35 84.72-33.04 83.86-32.74 82.76-32.74ZM79.15 0L79.15-28.81 86.37-28.81 86.37 0 79.15 0ZM93.64-3.37L96.77-8.84Q99.7-7.08 103.22-6.25 106.73-5.42 110.42-5.42L110.42-5.42Q112.91-5.42 114.57-5.76 116.23-6.1 117.23-6.64 118.23-7.18 118.64-7.86 119.06-8.54 119.06-9.25L119.06-9.25Q119.06-10.28 118.17-11.01 117.28-11.74 115.23-11.74L115.23-11.74Q114.27-11.74 113.18-11.62 112.08-11.5 110.87-11.36 109.66-11.23 108.35-11.11 107.05-10.99 105.71-10.99L105.71-10.99Q102.78-10.99 100.71-11.62 98.65-12.26 97.36-13.35 96.06-14.45 95.48-15.95 94.89-17.46 94.89-19.19L94.89-19.19Q94.89-21.39 95.92-23.24 96.94-25.1 98.85-26.45 100.75-27.81 103.45-28.56 106.14-29.32 109.47-29.32L109.47-29.32Q111.2-29.32 113.09-29.11 114.98-28.91 116.81-28.56 118.64-28.22 120.33-27.77 122.01-27.32 123.31-26.81L123.31-26.81 121.04-21.19Q118.28-22.22 115.53-22.81 112.79-23.41 109.88-23.41L109.88-23.41Q107.85-23.41 106.45-23.11 105.05-22.8 104.17-22.3 103.29-21.8 102.89-21.15 102.48-20.51 102.48-19.8L102.48-19.8Q102.48-19.29 102.69-18.87 102.9-18.46 103.37-18.15 103.85-17.85 104.62-17.69 105.39-17.53 106.51-17.53L106.51-17.53Q107.54-17.53 108.68-17.65 109.83-17.77 111.08-17.91 112.32-18.04 113.65-18.16 114.98-18.29 116.37-18.29L116.37-18.29Q118.96-18.29 120.9-17.68 122.84-17.07 124.11-15.97 125.38-14.87 126.02-13.38 126.65-11.89 126.65-10.13L126.65-10.13Q126.65-7.86 125.6-5.91 124.55-3.96 122.48-2.53 120.4-1.1 117.31-0.29 114.23 0.51 110.17 0.51L110.17 0.51Q107.68 0.51 105.36 0.21 103.04-0.1 100.94-0.62 98.85-1.15 97-1.86 95.16-2.56 93.64-3.37L93.64-3.37ZM137.49 0L137.49-23.39 130.53-23.39 130.53-28.81 137.49-28.81 137.49-37.77 144.72-37.77 144.72-28.81 151.67-28.81 151.67-23.39 144.72-23.39 144.72 0 137.49 0ZM174.89 0L174.89-28.81 182.11-28.81 182.11-26.37Q184.82-28.03 187.4-28.67 189.98-29.32 192.44-29.32L192.44-29.32Q195.88-29.32 198.76-28.22 201.65-27.12 203.7-24.9L203.7-24.9Q205.28-26.12 206.82-26.97 208.36-27.81 209.9-28.33 211.44-28.86 213.02-29.09 214.61-29.32 216.29-29.32L216.29-29.32Q219.83-29.32 222.71-28.36 225.6-27.39 227.63-25.49 229.67-23.58 230.78-20.74 231.89-17.9 231.89-14.16L231.89-14.16 231.89 0 224.69 0 224.69-12.99Q224.69-15.36 224.02-17.22 223.35-19.09 222.14-20.37 220.93-21.66 219.26-22.33 217.59-23 215.59-23L215.59-23Q214.49-23 213.34-22.79 212.19-22.58 211.11-22.14 210.02-21.7 209.07-21.03 208.11-20.36 207.41-19.46L207.41-19.46 207.41 0 200.2 0 200.2-12.99Q200.2-15.36 199.53-17.22 198.86-19.09 197.65-20.37 196.44-21.66 194.75-22.33 193.05-23 191.03-23L191.03-23Q189.78-23 188.52-22.74 187.27-22.49 186.11-22.02 184.95-21.56 183.93-20.9 182.92-20.24 182.11-19.41L182.11-19.41 182.11 0 174.89 0ZM239.61-9.08L239.61-9.08Q239.61-11.16 240.51-12.87 241.41-14.58 243.22-15.81 245.03-17.04 247.72-17.71 250.42-18.38 254.01-18.38L254.01-18.38Q256.67-18.38 259.61-17.99 262.56-17.6 265.68-16.8L265.68-16.8Q265.56-18.16 264.85-19.32 264.14-20.48 262.89-21.33 261.63-22.17 259.86-22.63 258.09-23.1 255.84-23.1L255.84-23.1Q254.62-23.1 253.16-22.95 251.69-22.8 250.13-22.51 248.57-22.22 247.04-21.78 245.51-21.34 244.2-20.73L244.2-20.73 242-26.66Q243.63-27.25 245.5-27.73 247.37-28.22 249.32-28.58 251.28-28.93 253.23-29.13 255.18-29.32 257.01-29.32L257.01-29.32Q265.09-29.32 269.03-25.2 272.96-21.07 272.96-12.55L272.96-12.55 272.96 0 265.73 0 265.73-2.71Q264.61-2.05 263.28-1.46 261.95-0.88 260.38-0.44 258.82 0 257.03 0.26 255.23 0.51 253.23 0.51L253.23 0.51Q249.86 0.51 247.31-0.22 244.76-0.95 243.05-2.25 241.34-3.54 240.47-5.29 239.61-7.03 239.61-9.08ZM247.22-9.33L247.22-9.33Q247.22-8.62 247.59-7.97 247.96-7.32 248.76-6.82 249.57-6.32 250.82-6.02 252.08-5.71 253.86-5.71L253.86-5.71Q255.77-5.71 257.55-6.05 259.33-6.4 260.87-6.96 262.41-7.52 263.65-8.25 264.9-8.98 265.73-9.77L265.73-9.77 265.73-11.04Q264.07-11.5 262.45-11.82 260.82-12.13 259.35-12.32 257.87-12.5 256.56-12.57 255.26-12.65 254.28-12.65L254.28-12.65Q252.25-12.65 250.91-12.38 249.57-12.11 248.74-11.66 247.91-11.21 247.57-10.6 247.22-9.99 247.22-9.33ZM282.69 0L282.69-40.5 289.92-40.5 289.92 0 282.69 0ZM299.37 0L299.37-40.5 306.59-40.5 306.59 0 299.37 0Z" opacity="1" transform="matrix(1,0,0,1,0,0)" fill="white" class="wordmark-text-0" id="SvgjsPath1572"></path></svg></g></svg></g></svg></g></svg></g><g transform="matrix(1,0,0,1,154.126415029161,0)"><svg viewBox="0 0 89.24476994167792 73.24738894472362" height="73.24738894472362" width="89.24476994167792"><g><svg xmlns="http://www.w3.org/2000/svg" xmlns:xlink="http://www.w3.org/1999/xlink" version="1.1" x="8" y="0" viewBox="0.0022005525735069864 0 99.9954244775228 99.999" enable-background="new 0 0 100 100" xml:space="preserve" height="73.24738894472362" width="73.24476994167792" class="icon-icon-0" data-fill-palette-color="accent" id="SvgjsSvg1571"><g fill="black"><g fill="black"><path d="M54.981 33.014l-1.932-0.518-1.555 5.801 1.932 0.518L54.981 33.014zM34.397 45.632l-7.241-1.938-0.518 1.932 7.241 1.938L34.397 45.632zM63.023 38.254l-1.414-1.414-4.246 4.247 1.414 1.414L63.023 38.254zM95.225 24.457L75.408 4.64l-1.414 1.414 19.816 19.816L95.225 24.457zM46.146 35.297l-1.938-7.243-1.932 0.518 1.938 7.243L46.146 35.297zM75.762 68.686c-0.194-0.193-0.451-0.291-0.707-0.291s-0.513 0.098-0.707 0.291l-4.955 4.957c-0.389 0.389-0.389 1.025 0 1.414l2.125 2.125c0.193 0.193 0.45 0.291 0.707 0.291 0.256 0 0.512-0.098 0.707-0.291l4.955-4.957c0.389-0.389 0.389-1.025 0-1.414L75.762 68.686zM72.225 75.061l-0.711-0.711 3.541-3.543 0.711 0.711L72.225 75.061zM98.83 23.814l-5.695-5.695L76.117 1.1l-0.008 0.008C75.34 0.375 74.349 0 73.353 0c-1.026 0-2.052 0.39-2.831 1.168 0 0-14.893 12.062-24.092 14.185l-3.951-0.829c-5.112 3.697-10.201 8.003-15.113 12.843-4.84 4.912-9.145 10.001-12.843 15.113l0.829 3.95C13.229 55.631 1.166 70.523 1.166 70.523c-1.534 1.533-1.549 4.025-0.06 5.588l-0.007 0.006 0.065 0.064c0 0 0.001 0.002 0.002 0.004l11.29 11.289 11.29 11.291h0l0.066 0.066c0.779 0.779 1.805 1.168 2.831 1.168 1.026 0 2.052-0.389 2.831-1.168 0 0 14.893-12.063 24.093-14.186l3.949 0.83c3.214-2.324 6.414-4.912 9.571-7.697l0.603-3.01 1.414-1.414 4.247-4.248 1.415-1.414 3.01-0.604c2.785-3.158 5.373-6.357 7.697-9.57l-0.83-3.951c2.123-9.2 14.186-24.092 14.186-24.092C100.387 27.919 100.387 25.372 98.83 23.814zM76.116 3.929l15.038 15.038 4.78 4.78-2.833 2.832-0.001-0.001-1.414 1.414 0.001 0.001-2.832 2.833-0.001-0.001L87.44 32.24l0.001 0.001-2.832 2.832-0.002-0.001-1.414 1.414 0.002 0.001L73.147 46.535c-0.825-1.285-1.724-2.539-2.655-3.779-0.105-0.143-0.218-0.283-0.326-0.426-0.499-0.653-1.004-1.304-1.533-1.944-0.238-0.288-0.49-0.572-0.735-0.859-0.448-0.524-0.891-1.05-1.358-1.563-0.44-0.486-0.908-0.963-1.369-1.441-0.299-0.312-0.584-0.631-0.891-0.938-0.3-0.3-0.613-0.578-0.917-0.871-0.486-0.469-0.971-0.943-1.464-1.392-0.502-0.456-1.018-0.89-1.529-1.327-0.299-0.256-0.597-0.521-0.898-0.77-0.631-0.521-1.271-1.018-1.915-1.51-0.152-0.116-0.304-0.236-0.456-0.351-1.238-0.929-2.489-1.825-3.771-2.647l10.048-10.048 0.002 0.001 1.414-1.414-0.002-0.001 2.832-2.832 0.002 0.001 1.414-1.414-0.002-0.001 2.832-2.832 0.002 0.001 1.414-1.414-0.002-0.002L76.116 3.929zM75.066 54.441c-1.666 2.115-6.013 7.512-10.271 11.77-3.278 3.277-9.461 8.365-11.793 10.262-2.126-0.924-4.244-2.051-6.332-3.344-3.781-2.381-7.532-5.35-11.059-8.875-3.527-3.527-6.493-7.277-8.875-11.059-1.294-2.088-2.422-4.207-3.347-6.333 1.897-2.332 6.984-8.514 10.263-11.792 3.692-3.692 9.541-8.465 11.784-10.267 4.513 1.96 8.995 4.793 13.208 8.329 0.076 0.064 0.152 0.131 0.229 0.195 0.59 0.5 1.174 1.016 1.752 1.542 0.104 0.095 0.208 0.188 0.312 0.283 0.65 0.601 1.293 1.215 1.927 1.848 0.635 0.635 1.25 1.279 1.852 1.932 0.093 0.1 0.182 0.2 0.272 0.3 0.533 0.585 1.055 1.175 1.56 1.771 0.06 0.071 0.122 0.142 0.181 0.213C70.27 45.433 73.105 49.921 75.066 54.441zM71.781 2.723l0.081-0.066 0.074-0.074C72.312 2.207 72.814 2 73.353 2c0.505 0 0.976 0.188 1.343 0.521l-2.826 2.825L70.362 3.84C71.168 3.216 71.676 2.807 71.781 2.723zM68.757 5.063l1.698 1.698-2.832 2.832-2.145-2.145C66.715 6.576 67.823 5.762 68.757 5.063zM63.809 8.608l2.4 2.399-2.832 2.832-2.983-2.982C61.58 10.106 62.729 9.347 63.809 8.608zM17.3 46.88l0.099-0.43-0.09-0.432-0.646-3.079c3.571-4.859 7.647-9.622 12.107-14.148 4.548-4.481 9.311-8.558 14.168-12.128l3.081 0.646 0.431 0.091 0.429-0.099c3.537-0.816 7.786-2.962 11.768-5.364l3.316 3.315L51.531 25.685c-2.15-1.254-4.3-2.331-6.416-3.185 0 0-8.116 6.394-12.877 11.155-4.2 4.199-11.155 12.877-11.155 12.877 0.854 2.115 1.931 4.266 3.185 6.417l-9.016 9.016-3.317-3.316C14.338 54.666 16.484 50.417 17.3 46.88zM10.855 60.395l2.984 2.984-2.833 2.832-2.4-2.4C9.345 62.729 10.104 61.582 10.855 60.395zM7.447 65.479l2.146 2.146L6.76 70.457l-1.7-1.699C5.76 67.824 6.574 66.715 7.447 65.479zM2.581 71.938l0.074-0.074 0.066-0.082c0.084-0.104 0.494-0.611 1.118-1.418l1.508 1.508L2.52 74.697C1.807 73.912 1.822 72.695 2.581 71.938zM23.747 95.938l-6.443-6.443L3.928 76.117l2.833-2.832 0.001 0.002 1.414-1.414-0.001-0.002 2.833-2.832 0.001 0.002 1.414-1.414-0.001-0.002 2.832-2.832 0.001 0.002 1.414-1.414-0.001-0.002 8.664-8.664c0.068 0.105 0.145 0.209 0.213 0.314 2.343 3.646 5.22 7.262 8.625 10.666 3.404 3.404 7.019 6.281 10.666 8.623 0.105 0.068 0.208 0.146 0.314 0.215l-8.664 8.664-0.001-0.002-1.414 1.414 0.001 0.002-2.833 2.832h0l-1.414 1.414h0l-2.832 2.832-0.001-0.002-1.414 1.414 0.001 0.002L23.747 95.938zM28.216 97.277l-0.082 0.066-0.074 0.074C27.685 97.793 27.182 98 26.644 98s-1.041-0.207-1.417-0.582l-0.066-0.066 2.833-2.834 1.642 1.643C28.829 96.783 28.321 97.193 28.216 97.277zM31.241 94.938l-1.833-1.834 2.832-2.832 2.28 2.279C33.283 93.424 32.174 94.236 31.241 94.938zM36.188 91.393l-2.535-2.535 2.833-2.832 3.117 3.117C38.417 89.895 37.269 90.652 36.188 91.393zM82.696 53.119l-0.099 0.43 0.09 0.432 0.646 3.08c-1.969 2.674-4.189 5.428-6.613 8.201l-2.346 0.471-0.593 0.119-0.429 0.428-1.415 1.414-4.247 4.248-1.414 1.414-0.429 0.428-0.118 0.594-0.47 2.346c-2.773 2.424-5.526 4.643-8.202 6.613l-3.08-0.646-0.432-0.09-0.429 0.098c-3.536 0.816-7.787 2.963-11.768 5.365l-3.45-3.451 9.016-9.016c2.15 1.254 4.301 2.33 6.416 3.184 0 0 8.679-6.955 12.878-11.154 5.548-5.547 11.154-12.877 11.154-12.877-0.854-2.115-1.932-4.265-3.185-6.416l10.431-10.431 3.451 3.45C85.658 45.333 83.512 49.583 82.696 53.119zM89.141 39.605l-3.117-3.117 2.832-2.833 2.535 2.534C90.651 37.271 89.893 38.417 89.141 39.605zM92.549 34.52l-2.279-2.279 2.832-2.832 1.834 1.833C94.235 32.175 93.422 33.284 92.549 34.52zM97.416 28.062l-0.074 0.074-0.066 0.081c-0.084 0.104-0.493 0.612-1.117 1.419l-1.643-1.642 2.834-2.833 0.066 0.066c0.375 0.376 0.582 0.879 0.582 1.417S97.791 27.687 97.416 28.062zM65.502 14.547l19.815 19.815 1.414-1.414L66.916 13.133 65.502 14.547zM69.748 10.3l19.815 19.815 1.414-1.414L71.162 8.886 69.748 10.3zM61.256 18.792L81.07 38.609l1.414-1.414L62.67 17.378 61.256 18.792zM43.466 68.266l1.932 0.518 1.554-5.801-1.932-0.518L43.466 68.266zM61.566 48.369l5.801-1.555-0.518-1.932-5.801 1.555L61.566 48.369zM36.881 52.912l-5.801 1.555 0.518 1.932 5.801-1.555L36.881 52.912zM38.607 81.072L18.792 61.258l-1.414 1.414 19.816 19.814L38.607 81.072zM53.076 48.306l-3.115 1.335h-0.016l-4.019-12.056-1.897 0.633 4.073 12.22L33.26 56.799l0.788 1.838 14.688-6.295 0.954 2.861 1.897-0.633-0.977-2.93h18.428v-2H53.648L53.076 48.306zM34.361 85.318L14.545 65.502l-1.414 1.414 19.816 19.816L34.361 85.318zM4.639 75.41l19.816 19.814 1.414-1.414L6.053 73.996 4.639 75.41zM30.115 89.564L10.299 69.75l-1.414 1.414 19.816 19.814L30.115 89.564zM35.424 63.025l1.414 1.414 4.247-4.244-1.414-1.414L35.424 63.025zM57.363 60.195l4.246 4.244 1.414-1.414-4.246-4.244L57.363 60.195zM64.049 55.648l7.242 1.939 0.518-1.932-7.242-1.939L64.049 55.648zM52.301 65.984l1.938 7.242 1.932-0.518-1.938-7.242L52.301 65.984z" fill="black"></path></g></g></svg></g></svg></g><g><rect width="77.59329502916103" height="4.779685330203016" y="67.46770361452062" x="243.3711849708389" fill="black"></rect><rect width="77.59329502916103" height="4.779685330203016" y="67.46770361452062" x="76.53311999999997" fill="black"></rect></g></svg></g><defs><mask></mask></defs></svg><rect width="395.52" height="155.27622868126906" fill="black" stroke="none" visibility="hidden"></rect></g></mask><linearGradient x1="0" x2="1" y1="0.5" y2="0.5" id="96be3e11-4adf-4727-90ed-925a7e0ad7de"><stop stop-color="#fff72e" offset="0"></stop><stop stop-color="#deae29" offset="1"></stop></linearGradient><rect width="395.52" height="155.27622868126906" fill="#ffffff" mask="url(#dfff5be6-c077-4b4f-909e-3af13c8abe64)" data-fill-palette-color="primary"></rect><mask id="f391dbab-e0b0-433f-9466-1f298cd3fd2a"><g id="SvgjsG1587"><svg viewBox="0 0 395.52 155.27622868126906" height="155.27622868126906" width="395.52"><g><svg viewBox="0 0 397.4975999999999 156.0526098246754" height="155.27622868126906" width="395.52"><g><rect width="397.4975999999999" height="4.779685330203016" x="0" y="85.75965420703518" fill="white" opacity="1" stroke-width="0" stroke="transparent" fill-opacity="1" class="rect-qz-0" rx="1%" id="SvgjsRect1586" data-palette-color="url(#99f43863-4e1e-4cab-a283-1aaa4008967f)"></rect></g><g transform="matrix(1,0,0,1,0.9887999999999693,103.05160479954975)"><svg viewBox="0 0 395.52 53.00100502512563" height="53.00100502512563" width="395.52"><g id="SvgjsG1585"><svg viewBox="0 0 395.52 53.00100502512563" height="53.00100502512563" width="395.52" id="SvgjsSvg1584"><g><svg viewBox="0 0 395.52 53.00100502512563" height="53.00100502512563" width="395.52"><g transform="matrix(1,0,0,1,0,0)"><svg width="395.52" viewBox="0.54 -40.5 306.04999999999995 41.01" height="53.00100502512563" data-palette-color="url(#96be3e11-4adf-4727-90ed-925a7e0ad7de)"></svg></g></svg></g></svg></g></svg></g><g transform="matrix(1,0,0,1,154.126415029161,0)"><svg viewBox="0 0 89.24476994167792 73.24738894472362" height="73.24738894472362" width="89.24476994167792"><g><svg xmlns="http://www.w3.org/2000/svg" xmlns:xlink="http://www.w3.org/1999/xlink" version="1.1" x="8" y="0" viewBox="0.0022005525735069864 0 99.9954244775228 99.999" enable-background="new 0 0 100 100" xml:space="preserve" height="73.24738894472362" width="73.24476994167792" class="icon-icon-0" data-fill-palette-color="accent" id="SvgjsSvg1583"><g fill="black"><g fill="black"><path d="M54.981 33.014l-1.932-0.518-1.555 5.801 1.932 0.518L54.981 33.014zM34.397 45.632l-7.241-1.938-0.518 1.932 7.241 1.938L34.397 45.632zM63.023 38.254l-1.414-1.414-4.246 4.247 1.414 1.414L63.023 38.254zM95.225 24.457L75.408 4.64l-1.414 1.414 19.816 19.816L95.225 24.457zM46.146 35.297l-1.938-7.243-1.932 0.518 1.938 7.243L46.146 35.297zM75.762 68.686c-0.194-0.193-0.451-0.291-0.707-0.291s-0.513 0.098-0.707 0.291l-4.955 4.957c-0.389 0.389-0.389 1.025 0 1.414l2.125 2.125c0.193 0.193 0.45 0.291 0.707 0.291 0.256 0 0.512-0.098 0.707-0.291l4.955-4.957c0.389-0.389 0.389-1.025 0-1.414L75.762 68.686zM72.225 75.061l-0.711-0.711 3.541-3.543 0.711 0.711L72.225 75.061zM98.83 23.814l-5.695-5.695L76.117 1.1l-0.008 0.008C75.34 0.375 74.349 0 73.353 0c-1.026 0-2.052 0.39-2.831 1.168 0 0-14.893 12.062-24.092 14.185l-3.951-0.829c-5.112 3.697-10.201 8.003-15.113 12.843-4.84 4.912-9.145 10.001-12.843 15.113l0.829 3.95C13.229 55.631 1.166 70.523 1.166 70.523c-1.534 1.533-1.549 4.025-0.06 5.588l-0.007 0.006 0.065 0.064c0 0 0.001 0.002 0.002 0.004l11.29 11.289 11.29 11.291h0l0.066 0.066c0.779 0.779 1.805 1.168 2.831 1.168 1.026 0 2.052-0.389 2.831-1.168 0 0 14.893-12.063 24.093-14.186l3.949 0.83c3.214-2.324 6.414-4.912 9.571-7.697l0.603-3.01 1.414-1.414 4.247-4.248 1.415-1.414 3.01-0.604c2.785-3.158 5.373-6.357 7.697-9.57l-0.83-3.951c2.123-9.2 14.186-24.092 14.186-24.092C100.387 27.919 100.387 25.372 98.83 23.814zM76.116 3.929l15.038 15.038 4.78 4.78-2.833 2.832-0.001-0.001-1.414 1.414 0.001 0.001-2.832 2.833-0.001-0.001L87.44 32.24l0.001 0.001-2.832 2.832-0.002-0.001-1.414 1.414 0.002 0.001L73.147 46.535c-0.825-1.285-1.724-2.539-2.655-3.779-0.105-0.143-0.218-0.283-0.326-0.426-0.499-0.653-1.004-1.304-1.533-1.944-0.238-0.288-0.49-0.572-0.735-0.859-0.448-0.524-0.891-1.05-1.358-1.563-0.44-0.486-0.908-0.963-1.369-1.441-0.299-0.312-0.584-0.631-0.891-0.938-0.3-0.3-0.613-0.578-0.917-0.871-0.486-0.469-0.971-0.943-1.464-1.392-0.502-0.456-1.018-0.89-1.529-1.327-0.299-0.256-0.597-0.521-0.898-0.77-0.631-0.521-1.271-1.018-1.915-1.51-0.152-0.116-0.304-0.236-0.456-0.351-1.238-0.929-2.489-1.825-3.771-2.647l10.048-10.048 0.002 0.001 1.414-1.414-0.002-0.001 2.832-2.832 0.002 0.001 1.414-1.414-0.002-0.001 2.832-2.832 0.002 0.001 1.414-1.414-0.002-0.002L76.116 3.929zM75.066 54.441c-1.666 2.115-6.013 7.512-10.271 11.77-3.278 3.277-9.461 8.365-11.793 10.262-2.126-0.924-4.244-2.051-6.332-3.344-3.781-2.381-7.532-5.35-11.059-8.875-3.527-3.527-6.493-7.277-8.875-11.059-1.294-2.088-2.422-4.207-3.347-6.333 1.897-2.332 6.984-8.514 10.263-11.792 3.692-3.692 9.541-8.465 11.784-10.267 4.513 1.96 8.995 4.793 13.208 8.329 0.076 0.064 0.152 0.131 0.229 0.195 0.59 0.5 1.174 1.016 1.752 1.542 0.104 0.095 0.208 0.188 0.312 0.283 0.65 0.601 1.293 1.215 1.927 1.848 0.635 0.635 1.25 1.279 1.852 1.932 0.093 0.1 0.182 0.2 0.272 0.3 0.533 0.585 1.055 1.175 1.56 1.771 0.06 0.071 0.122 0.142 0.181 0.213C70.27 45.433 73.105 49.921 75.066 54.441zM71.781 2.723l0.081-0.066 0.074-0.074C72.312 2.207 72.814 2 73.353 2c0.505 0 0.976 0.188 1.343 0.521l-2.826 2.825L70.362 3.84C71.168 3.216 71.676 2.807 71.781 2.723zM68.757 5.063l1.698 1.698-2.832 2.832-2.145-2.145C66.715 6.576 67.823 5.762 68.757 5.063zM63.809 8.608l2.4 2.399-2.832 2.832-2.983-2.982C61.58 10.106 62.729 9.347 63.809 8.608zM17.3 46.88l0.099-0.43-0.09-0.432-0.646-3.079c3.571-4.859 7.647-9.622 12.107-14.148 4.548-4.481 9.311-8.558 14.168-12.128l3.081 0.646 0.431 0.091 0.429-0.099c3.537-0.816 7.786-2.962 11.768-5.364l3.316 3.315L51.531 25.685c-2.15-1.254-4.3-2.331-6.416-3.185 0 0-8.116 6.394-12.877 11.155-4.2 4.199-11.155 12.877-11.155 12.877 0.854 2.115 1.931 4.266 3.185 6.417l-9.016 9.016-3.317-3.316C14.338 54.666 16.484 50.417 17.3 46.88zM10.855 60.395l2.984 2.984-2.833 2.832-2.4-2.4C9.345 62.729 10.104 61.582 10.855 60.395zM7.447 65.479l2.146 2.146L6.76 70.457l-1.7-1.699C5.76 67.824 6.574 66.715 7.447 65.479zM2.581 71.938l0.074-0.074 0.066-0.082c0.084-0.104 0.494-0.611 1.118-1.418l1.508 1.508L2.52 74.697C1.807 73.912 1.822 72.695 2.581 71.938zM23.747 95.938l-6.443-6.443L3.928 76.117l2.833-2.832 0.001 0.002 1.414-1.414-0.001-0.002 2.833-2.832 0.001 0.002 1.414-1.414-0.001-0.002 2.832-2.832 0.001 0.002 1.414-1.414-0.001-0.002 8.664-8.664c0.068 0.105 0.145 0.209 0.213 0.314 2.343 3.646 5.22 7.262 8.625 10.666 3.404 3.404 7.019 6.281 10.666 8.623 0.105 0.068 0.208 0.146 0.314 0.215l-8.664 8.664-0.001-0.002-1.414 1.414 0.001 0.002-2.833 2.832h0l-1.414 1.414h0l-2.832 2.832-0.001-0.002-1.414 1.414 0.001 0.002L23.747 95.938zM28.216 97.277l-0.082 0.066-0.074 0.074C27.685 97.793 27.182 98 26.644 98s-1.041-0.207-1.417-0.582l-0.066-0.066 2.833-2.834 1.642 1.643C28.829 96.783 28.321 97.193 28.216 97.277zM31.241 94.938l-1.833-1.834 2.832-2.832 2.28 2.279C33.283 93.424 32.174 94.236 31.241 94.938zM36.188 91.393l-2.535-2.535 2.833-2.832 3.117 3.117C38.417 89.895 37.269 90.652 36.188 91.393zM82.696 53.119l-0.099 0.43 0.09 0.432 0.646 3.08c-1.969 2.674-4.189 5.428-6.613 8.201l-2.346 0.471-0.593 0.119-0.429 0.428-1.415 1.414-4.247 4.248-1.414 1.414-0.429 0.428-0.118 0.594-0.47 2.346c-2.773 2.424-5.526 4.643-8.202 6.613l-3.08-0.646-0.432-0.09-0.429 0.098c-3.536 0.816-7.787 2.963-11.768 5.365l-3.45-3.451 9.016-9.016c2.15 1.254 4.301 2.33 6.416 3.184 0 0 8.679-6.955 12.878-11.154 5.548-5.547 11.154-12.877 11.154-12.877-0.854-2.115-1.932-4.265-3.185-6.416l10.431-10.431 3.451 3.45C85.658 45.333 83.512 49.583 82.696 53.119zM89.141 39.605l-3.117-3.117 2.832-2.833 2.535 2.534C90.651 37.271 89.893 38.417 89.141 39.605zM92.549 34.52l-2.279-2.279 2.832-2.832 1.834 1.833C94.235 32.175 93.422 33.284 92.549 34.52zM97.416 28.062l-0.074 0.074-0.066 0.081c-0.084 0.104-0.493 0.612-1.117 1.419l-1.643-1.642 2.834-2.833 0.066 0.066c0.375 0.376 0.582 0.879 0.582 1.417S97.791 27.687 97.416 28.062zM65.502 14.547l19.815 19.815 1.414-1.414L66.916 13.133 65.502 14.547zM69.748 10.3l19.815 19.815 1.414-1.414L71.162 8.886 69.748 10.3zM61.256 18.792L81.07 38.609l1.414-1.414L62.67 17.378 61.256 18.792zM43.466 68.266l1.932 0.518 1.554-5.801-1.932-0.518L43.466 68.266zM61.566 48.369l5.801-1.555-0.518-1.932-5.801 1.555L61.566 48.369zM36.881 52.912l-5.801 1.555 0.518 1.932 5.801-1.555L36.881 52.912zM38.607 81.072L18.792 61.258l-1.414 1.414 19.816 19.814L38.607 81.072zM53.076 48.306l-3.115 1.335h-0.016l-4.019-12.056-1.897 0.633 4.073 12.22L33.26 56.799l0.788 1.838 14.688-6.295 0.954 2.861 1.897-0.633-0.977-2.93h18.428v-2H53.648L53.076 48.306zM34.361 85.318L14.545 65.502l-1.414 1.414 19.816 19.816L34.361 85.318zM4.639 75.41l19.816 19.814 1.414-1.414L6.053 73.996 4.639 75.41zM30.115 89.564L10.299 69.75l-1.414 1.414 19.816 19.814L30.115 89.564zM35.424 63.025l1.414 1.414 4.247-4.244-1.414-1.414L35.424 63.025zM57.363 60.195l4.246 4.244 1.414-1.414-4.246-4.244L57.363 60.195zM64.049 55.648l7.242 1.939 0.518-1.932-7.242-1.939L64.049 55.648zM52.301 65.984l1.938 7.242 1.932-0.518-1.938-7.242L52.301 65.984z" fill="black"></path></g></g></svg></g></svg></g><g><rect width="77.59329502916103" height="4.779685330203016" y="67.46770361452062" x="243.3711849708389" fill="white"></rect><rect width="77.59329502916103" height="4.779685330203016" y="67.46770361452062" x="76.53311999999997" fill="white"></rect></g></svg></g><defs><mask></mask></defs><mask><g id="SvgjsG1582"><svg viewBox="0 0 395.52 155.27622868126906" height="155.27622868126906" width="395.52"><g><svg viewBox="0 0 397.4975999999999 156.0526098246754" height="155.27622868126906" width="395.52"><g><rect width="397.4975999999999" height="4.779685330203016" x="0" y="85.75965420703518" fill="black" opacity="1" stroke-width="0" stroke="transparent" fill-opacity="1" class="rect-qz-0" rx="1%" id="SvgjsRect1581" data-palette-color="url(#99f43863-4e1e-4cab-a283-1aaa4008967f)"></rect></g><g transform="matrix(1,0,0,1,0.9887999999999693,103.05160479954975)"><svg viewBox="0 0 395.52 53.00100502512563" height="53.00100502512563" width="395.52"><g id="SvgjsG1580"><svg viewBox="0 0 395.52 53.00100502512563" height="53.00100502512563" width="395.52" id="SvgjsSvg1579"><g><svg viewBox="0 0 395.52 53.00100502512563" height="53.00100502512563" width="395.52"><g transform="matrix(1,0,0,1,0,0)"><svg width="395.52" viewBox="0.54 -40.5 306.04999999999995 41.01" height="53.00100502512563" data-palette-color="url(#96be3e11-4adf-4727-90ed-925a7e0ad7de)"><path d="M14.18 0L0.54-28.83 8.91-28.83 16.41-11.5 18.6-6.64 21.29-12.94 14.16-28.83 21.19-28.83 24.68-20.29 28.17-28.83 35.21-28.83 28.05-12.94 30.76-6.64 32.96-11.5 40.45-28.83 48.83-28.83 35.18 0 27.32 0 24.68-5.57 22.05 0 14.18 0ZM53.88 0L53.88-28.81 61.11-28.81 61.11-24.66Q63.5-26.44 66.16-27.73 68.82-29.03 71.46-29.71L71.46-29.71 73.58-23.1Q69.41-22.68 66.25-21.23 63.08-19.78 61.11-17.14L61.11-17.14 61.11 0 53.88 0ZM82.76-32.74L82.76-32.74Q81.68-32.74 80.82-33.04 79.95-33.35 79.34-33.87 78.73-34.4 78.4-35.1 78.07-35.79 78.07-36.57L78.07-36.57Q78.07-37.38 78.4-38.07 78.73-38.77 79.34-39.28 79.95-39.79 80.82-40.1 81.68-40.41 82.76-40.41L82.76-40.41Q83.86-40.41 84.72-40.1 85.59-39.79 86.2-39.28 86.81-38.77 87.14-38.07 87.47-37.38 87.47-36.57L87.47-36.57Q87.47-35.79 87.14-35.1 86.81-34.4 86.2-33.87 85.59-33.35 84.72-33.04 83.86-32.74 82.76-32.74ZM79.15 0L79.15-28.81 86.37-28.81 86.37 0 79.15 0ZM93.64-3.37L96.77-8.84Q99.7-7.08 103.22-6.25 106.73-5.42 110.42-5.42L110.42-5.42Q112.91-5.42 114.57-5.76 116.23-6.1 117.23-6.64 118.23-7.18 118.64-7.86 119.06-8.54 119.06-9.25L119.06-9.25Q119.06-10.28 118.17-11.01 117.28-11.74 115.23-11.74L115.23-11.74Q114.27-11.74 113.18-11.62 112.08-11.5 110.87-11.36 109.66-11.23 108.35-11.11 107.05-10.99 105.71-10.99L105.71-10.99Q102.78-10.99 100.71-11.62 98.65-12.26 97.36-13.35 96.06-14.45 95.48-15.95 94.89-17.46 94.89-19.19L94.89-19.19Q94.89-21.39 95.92-23.24 96.94-25.1 98.85-26.45 100.75-27.81 103.45-28.56 106.14-29.32 109.47-29.32L109.47-29.32Q111.2-29.32 113.09-29.11 114.98-28.91 116.81-28.56 118.64-28.22 120.33-27.77 122.01-27.32 123.31-26.81L123.31-26.81 121.04-21.19Q118.28-22.22 115.53-22.81 112.79-23.41 109.88-23.41L109.88-23.41Q107.85-23.41 106.45-23.11 105.05-22.8 104.17-22.3 103.29-21.8 102.89-21.15 102.48-20.51 102.48-19.8L102.48-19.8Q102.48-19.29 102.69-18.87 102.9-18.46 103.37-18.15 103.85-17.85 104.62-17.69 105.39-17.53 106.51-17.53L106.51-17.53Q107.54-17.53 108.68-17.65 109.83-17.77 111.08-17.91 112.32-18.04 113.65-18.16 114.98-18.29 116.37-18.29L116.37-18.29Q118.96-18.29 120.9-17.68 122.84-17.07 124.11-15.97 125.38-14.87 126.02-13.38 126.65-11.89 126.65-10.13L126.65-10.13Q126.65-7.86 125.6-5.91 124.55-3.96 122.48-2.53 120.4-1.1 117.31-0.29 114.23 0.51 110.17 0.51L110.17 0.51Q107.68 0.51 105.36 0.21 103.04-0.1 100.94-0.62 98.85-1.15 97-1.86 95.16-2.56 93.64-3.37L93.64-3.37ZM137.49 0L137.49-23.39 130.53-23.39 130.53-28.81 137.49-28.81 137.49-37.77 144.72-37.77 144.72-28.81 151.67-28.81 151.67-23.39 144.72-23.39 144.72 0 137.49 0ZM174.89 0L174.89-28.81 182.11-28.81 182.11-26.37Q184.82-28.03 187.4-28.67 189.98-29.32 192.44-29.32L192.44-29.32Q195.88-29.32 198.76-28.22 201.65-27.12 203.7-24.9L203.7-24.9Q205.28-26.12 206.82-26.97 208.36-27.81 209.9-28.33 211.44-28.86 213.02-29.09 214.61-29.32 216.29-29.32L216.29-29.32Q219.83-29.32 222.71-28.36 225.6-27.39 227.63-25.49 229.67-23.58 230.78-20.74 231.89-17.9 231.89-14.16L231.89-14.16 231.89 0 224.69 0 224.69-12.99Q224.69-15.36 224.02-17.22 223.35-19.09 222.14-20.37 220.93-21.66 219.26-22.33 217.59-23 215.59-23L215.59-23Q214.49-23 213.34-22.79 212.19-22.58 211.11-22.14 210.02-21.7 209.07-21.03 208.11-20.36 207.41-19.46L207.41-19.46 207.41 0 200.2 0 200.2-12.99Q200.2-15.36 199.53-17.22 198.86-19.09 197.65-20.37 196.44-21.66 194.75-22.33 193.05-23 191.03-23L191.03-23Q189.78-23 188.52-22.74 187.27-22.49 186.11-22.02 184.95-21.56 183.93-20.9 182.92-20.24 182.11-19.41L182.11-19.41 182.11 0 174.89 0ZM239.61-9.08L239.61-9.08Q239.61-11.16 240.51-12.87 241.41-14.58 243.22-15.81 245.03-17.04 247.72-17.71 250.42-18.38 254.01-18.38L254.01-18.38Q256.67-18.38 259.61-17.99 262.56-17.6 265.68-16.8L265.68-16.8Q265.56-18.16 264.85-19.32 264.14-20.48 262.89-21.33 261.63-22.17 259.86-22.63 258.09-23.1 255.84-23.1L255.84-23.1Q254.62-23.1 253.16-22.95 251.69-22.8 250.13-22.51 248.57-22.22 247.04-21.78 245.51-21.34 244.2-20.73L244.2-20.73 242-26.66Q243.63-27.25 245.5-27.73 247.37-28.22 249.32-28.58 251.28-28.93 253.23-29.13 255.18-29.32 257.01-29.32L257.01-29.32Q265.09-29.32 269.03-25.2 272.96-21.07 272.96-12.55L272.96-12.55 272.96 0 265.73 0 265.73-2.71Q264.61-2.05 263.28-1.46 261.95-0.88 260.38-0.44 258.82 0 257.03 0.26 255.23 0.51 253.23 0.51L253.23 0.51Q249.86 0.51 247.31-0.22 244.76-0.95 243.05-2.25 241.34-3.54 240.47-5.29 239.61-7.03 239.61-9.08ZM247.22-9.33L247.22-9.33Q247.22-8.62 247.59-7.97 247.96-7.32 248.76-6.82 249.57-6.32 250.82-6.02 252.08-5.71 253.86-5.71L253.86-5.71Q255.77-5.71 257.55-6.05 259.33-6.4 260.87-6.96 262.41-7.52 263.65-8.25 264.9-8.98 265.73-9.77L265.73-9.77 265.73-11.04Q264.07-11.5 262.45-11.82 260.82-12.13 259.35-12.32 257.87-12.5 256.56-12.57 255.26-12.65 254.28-12.65L254.28-12.65Q252.25-12.65 250.91-12.38 249.57-12.11 248.74-11.66 247.91-11.21 247.57-10.6 247.22-9.99 247.22-9.33ZM282.69 0L282.69-40.5 289.92-40.5 289.92 0 282.69 0ZM299.37 0L299.37-40.5 306.59-40.5 306.59 0 299.37 0Z" opacity="1" transform="matrix(1,0,0,1,0,0)" fill="black" class="wordmark-text-0" id="SvgjsPath1578"></path></svg></g></svg></g></svg></g></svg></g><g transform="matrix(1,0,0,1,154.126415029161,0)"><svg viewBox="0 0 89.24476994167792 73.24738894472362" height="73.24738894472362" width="89.24476994167792"><g><svg xmlns="http://www.w3.org/2000/svg" xmlns:xlink="http://www.w3.org/1999/xlink" version="1.1" x="8" y="0" viewBox="0.0022005525735069864 0 99.9954244775228 99.999" enable-background="new 0 0 100 100" xml:space="preserve" height="73.24738894472362" width="73.24476994167792" class="icon-icon-0" data-fill-palette-color="accent" id="SvgjsSvg1577"><g fill="black"><g fill="black"><path d="M54.981 33.014l-1.932-0.518-1.555 5.801 1.932 0.518L54.981 33.014zM34.397 45.632l-7.241-1.938-0.518 1.932 7.241 1.938L34.397 45.632zM63.023 38.254l-1.414-1.414-4.246 4.247 1.414 1.414L63.023 38.254zM95.225 24.457L75.408 4.64l-1.414 1.414 19.816 19.816L95.225 24.457zM46.146 35.297l-1.938-7.243-1.932 0.518 1.938 7.243L46.146 35.297zM75.762 68.686c-0.194-0.193-0.451-0.291-0.707-0.291s-0.513 0.098-0.707 0.291l-4.955 4.957c-0.389 0.389-0.389 1.025 0 1.414l2.125 2.125c0.193 0.193 0.45 0.291 0.707 0.291 0.256 0 0.512-0.098 0.707-0.291l4.955-4.957c0.389-0.389 0.389-1.025 0-1.414L75.762 68.686zM72.225 75.061l-0.711-0.711 3.541-3.543 0.711 0.711L72.225 75.061zM98.83 23.814l-5.695-5.695L76.117 1.1l-0.008 0.008C75.34 0.375 74.349 0 73.353 0c-1.026 0-2.052 0.39-2.831 1.168 0 0-14.893 12.062-24.092 14.185l-3.951-0.829c-5.112 3.697-10.201 8.003-15.113 12.843-4.84 4.912-9.145 10.001-12.843 15.113l0.829 3.95C13.229 55.631 1.166 70.523 1.166 70.523c-1.534 1.533-1.549 4.025-0.06 5.588l-0.007 0.006 0.065 0.064c0 0 0.001 0.002 0.002 0.004l11.29 11.289 11.29 11.291h0l0.066 0.066c0.779 0.779 1.805 1.168 2.831 1.168 1.026 0 2.052-0.389 2.831-1.168 0 0 14.893-12.063 24.093-14.186l3.949 0.83c3.214-2.324 6.414-4.912 9.571-7.697l0.603-3.01 1.414-1.414 4.247-4.248 1.415-1.414 3.01-0.604c2.785-3.158 5.373-6.357 7.697-9.57l-0.83-3.951c2.123-9.2 14.186-24.092 14.186-24.092C100.387 27.919 100.387 25.372 98.83 23.814zM76.116 3.929l15.038 15.038 4.78 4.78-2.833 2.832-0.001-0.001-1.414 1.414 0.001 0.001-2.832 2.833-0.001-0.001L87.44 32.24l0.001 0.001-2.832 2.832-0.002-0.001-1.414 1.414 0.002 0.001L73.147 46.535c-0.825-1.285-1.724-2.539-2.655-3.779-0.105-0.143-0.218-0.283-0.326-0.426-0.499-0.653-1.004-1.304-1.533-1.944-0.238-0.288-0.49-0.572-0.735-0.859-0.448-0.524-0.891-1.05-1.358-1.563-0.44-0.486-0.908-0.963-1.369-1.441-0.299-0.312-0.584-0.631-0.891-0.938-0.3-0.3-0.613-0.578-0.917-0.871-0.486-0.469-0.971-0.943-1.464-1.392-0.502-0.456-1.018-0.89-1.529-1.327-0.299-0.256-0.597-0.521-0.898-0.77-0.631-0.521-1.271-1.018-1.915-1.51-0.152-0.116-0.304-0.236-0.456-0.351-1.238-0.929-2.489-1.825-3.771-2.647l10.048-10.048 0.002 0.001 1.414-1.414-0.002-0.001 2.832-2.832 0.002 0.001 1.414-1.414-0.002-0.001 2.832-2.832 0.002 0.001 1.414-1.414-0.002-0.002L76.116 3.929zM75.066 54.441c-1.666 2.115-6.013 7.512-10.271 11.77-3.278 3.277-9.461 8.365-11.793 10.262-2.126-0.924-4.244-2.051-6.332-3.344-3.781-2.381-7.532-5.35-11.059-8.875-3.527-3.527-6.493-7.277-8.875-11.059-1.294-2.088-2.422-4.207-3.347-6.333 1.897-2.332 6.984-8.514 10.263-11.792 3.692-3.692 9.541-8.465 11.784-10.267 4.513 1.96 8.995 4.793 13.208 8.329 0.076 0.064 0.152 0.131 0.229 0.195 0.59 0.5 1.174 1.016 1.752 1.542 0.104 0.095 0.208 0.188 0.312 0.283 0.65 0.601 1.293 1.215 1.927 1.848 0.635 0.635 1.25 1.279 1.852 1.932 0.093 0.1 0.182 0.2 0.272 0.3 0.533 0.585 1.055 1.175 1.56 1.771 0.06 0.071 0.122 0.142 0.181 0.213C70.27 45.433 73.105 49.921 75.066 54.441zM71.781 2.723l0.081-0.066 0.074-0.074C72.312 2.207 72.814 2 73.353 2c0.505 0 0.976 0.188 1.343 0.521l-2.826 2.825L70.362 3.84C71.168 3.216 71.676 2.807 71.781 2.723zM68.757 5.063l1.698 1.698-2.832 2.832-2.145-2.145C66.715 6.576 67.823 5.762 68.757 5.063zM63.809 8.608l2.4 2.399-2.832 2.832-2.983-2.982C61.58 10.106 62.729 9.347 63.809 8.608zM17.3 46.88l0.099-0.43-0.09-0.432-0.646-3.079c3.571-4.859 7.647-9.622 12.107-14.148 4.548-4.481 9.311-8.558 14.168-12.128l3.081 0.646 0.431 0.091 0.429-0.099c3.537-0.816 7.786-2.962 11.768-5.364l3.316 3.315L51.531 25.685c-2.15-1.254-4.3-2.331-6.416-3.185 0 0-8.116 6.394-12.877 11.155-4.2 4.199-11.155 12.877-11.155 12.877 0.854 2.115 1.931 4.266 3.185 6.417l-9.016 9.016-3.317-3.316C14.338 54.666 16.484 50.417 17.3 46.88zM10.855 60.395l2.984 2.984-2.833 2.832-2.4-2.4C9.345 62.729 10.104 61.582 10.855 60.395zM7.447 65.479l2.146 2.146L6.76 70.457l-1.7-1.699C5.76 67.824 6.574 66.715 7.447 65.479zM2.581 71.938l0.074-0.074 0.066-0.082c0.084-0.104 0.494-0.611 1.118-1.418l1.508 1.508L2.52 74.697C1.807 73.912 1.822 72.695 2.581 71.938zM23.747 95.938l-6.443-6.443L3.928 76.117l2.833-2.832 0.001 0.002 1.414-1.414-0.001-0.002 2.833-2.832 0.001 0.002 1.414-1.414-0.001-0.002 2.832-2.832 0.001 0.002 1.414-1.414-0.001-0.002 8.664-8.664c0.068 0.105 0.145 0.209 0.213 0.314 2.343 3.646 5.22 7.262 8.625 10.666 3.404 3.404 7.019 6.281 10.666 8.623 0.105 0.068 0.208 0.146 0.314 0.215l-8.664 8.664-0.001-0.002-1.414 1.414 0.001 0.002-2.833 2.832h0l-1.414 1.414h0l-2.832 2.832-0.001-0.002-1.414 1.414 0.001 0.002L23.747 95.938zM28.216 97.277l-0.082 0.066-0.074 0.074C27.685 97.793 27.182 98 26.644 98s-1.041-0.207-1.417-0.582l-0.066-0.066 2.833-2.834 1.642 1.643C28.829 96.783 28.321 97.193 28.216 97.277zM31.241 94.938l-1.833-1.834 2.832-2.832 2.28 2.279C33.283 93.424 32.174 94.236 31.241 94.938zM36.188 91.393l-2.535-2.535 2.833-2.832 3.117 3.117C38.417 89.895 37.269 90.652 36.188 91.393zM82.696 53.119l-0.099 0.43 0.09 0.432 0.646 3.08c-1.969 2.674-4.189 5.428-6.613 8.201l-2.346 0.471-0.593 0.119-0.429 0.428-1.415 1.414-4.247 4.248-1.414 1.414-0.429 0.428-0.118 0.594-0.47 2.346c-2.773 2.424-5.526 4.643-8.202 6.613l-3.08-0.646-0.432-0.09-0.429 0.098c-3.536 0.816-7.787 2.963-11.768 5.365l-3.45-3.451 9.016-9.016c2.15 1.254 4.301 2.33 6.416 3.184 0 0 8.679-6.955 12.878-11.154 5.548-5.547 11.154-12.877 11.154-12.877-0.854-2.115-1.932-4.265-3.185-6.416l10.431-10.431 3.451 3.45C85.658 45.333 83.512 49.583 82.696 53.119zM89.141 39.605l-3.117-3.117 2.832-2.833 2.535 2.534C90.651 37.271 89.893 38.417 89.141 39.605zM92.549 34.52l-2.279-2.279 2.832-2.832 1.834 1.833C94.235 32.175 93.422 33.284 92.549 34.52zM97.416 28.062l-0.074 0.074-0.066 0.081c-0.084 0.104-0.493 0.612-1.117 1.419l-1.643-1.642 2.834-2.833 0.066 0.066c0.375 0.376 0.582 0.879 0.582 1.417S97.791 27.687 97.416 28.062zM65.502 14.547l19.815 19.815 1.414-1.414L66.916 13.133 65.502 14.547zM69.748 10.3l19.815 19.815 1.414-1.414L71.162 8.886 69.748 10.3zM61.256 18.792L81.07 38.609l1.414-1.414L62.67 17.378 61.256 18.792zM43.466 68.266l1.932 0.518 1.554-5.801-1.932-0.518L43.466 68.266zM61.566 48.369l5.801-1.555-0.518-1.932-5.801 1.555L61.566 48.369zM36.881 52.912l-5.801 1.555 0.518 1.932 5.801-1.555L36.881 52.912zM38.607 81.072L18.792 61.258l-1.414 1.414 19.816 19.814L38.607 81.072zM53.076 48.306l-3.115 1.335h-0.016l-4.019-12.056-1.897 0.633 4.073 12.22L33.26 56.799l0.788 1.838 14.688-6.295 0.954 2.861 1.897-0.633-0.977-2.93h18.428v-2H53.648L53.076 48.306zM34.361 85.318L14.545 65.502l-1.414 1.414 19.816 19.816L34.361 85.318zM4.639 75.41l19.816 19.814 1.414-1.414L6.053 73.996 4.639 75.41zM30.115 89.564L10.299 69.75l-1.414 1.414 19.816 19.814L30.115 89.564zM35.424 63.025l1.414 1.414 4.247-4.244-1.414-1.414L35.424 63.025zM57.363 60.195l4.246 4.244 1.414-1.414-4.246-4.244L57.363 60.195zM64.049 55.648l7.242 1.939 0.518-1.932-7.242-1.939L64.049 55.648zM52.301 65.984l1.938 7.242 1.932-0.518-1.938-7.242L52.301 65.984z" fill="black"></path></g></g></svg></g></svg></g><g><rect width="77.59329502916103" height="4.779685330203016" y="67.46770361452062" x="243.3711849708389" fill="black"></rect><rect width="77.59329502916103" height="4.779685330203016" y="67.46770361452062" x="76.53311999999997" fill="black"></rect></g></svg></g><defs><mask></mask></defs></svg><rect width="395.52" height="155.27622868126906" fill="black" stroke="none" visibility="hidden"></rect></g></mask></svg><rect width="395.52" height="155.27622868126906" fill="black" stroke="none" visibility="hidden"></rect></g></mask><linearGradient x1="0" x2="1" y1="0.5" y2="0.5" id="99f43863-4e1e-4cab-a283-1aaa4008967f"><stop stop-color="#fff72e" offset="0"></stop><stop stop-color="#deae29" offset="1"></stop></linearGradient><rect width="395.52" height="155.27622868126906" fill="#ffffff" mask="url(#f391dbab-e0b0-433f-9466-1f298cd3fd2a)" data-fill-palette-color="secondary"></rect><mask id="df201a9b-6154-4409-86b9-c4909e788a50"><g id="SvgjsG1608"><svg viewBox="0 0 395.52 155.27622868126906" height="155.27622868126906" width="395.52"><g><svg viewBox="0 0 397.4975999999999 156.0526098246754" height="155.27622868126906" width="395.52"><g></g><g transform="matrix(1,0,0,1,0.9887999999999693,103.05160479954975)"><svg viewBox="0 0 395.52 53.00100502512563" height="53.00100502512563" width="395.52"><g id="SvgjsG1607"><svg viewBox="0 0 395.52 53.00100502512563" height="53.00100502512563" width="395.52" id="SvgjsSvg1606"><g><svg viewBox="0 0 395.52 53.00100502512563" height="53.00100502512563" width="395.52"><g transform="matrix(1,0,0,1,0,0)"><svg width="395.52" viewBox="0.54 -40.5 306.04999999999995 41.01" height="53.00100502512563" data-palette-color="url(#96be3e11-4adf-4727-90ed-925a7e0ad7de)"></svg></g></svg></g></svg></g></svg></g><g transform="matrix(1,0,0,1,154.126415029161,0)"><svg viewBox="0 0 89.24476994167792 73.24738894472362" height="73.24738894472362" width="89.24476994167792"><g><svg xmlns="http://www.w3.org/2000/svg" xmlns:xlink="http://www.w3.org/1999/xlink" version="1.1" x="8" y="0" viewBox="0.0022005525735069864 0 99.9954244775228 99.999" enable-background="new 0 0 100 100" xml:space="preserve" height="73.24738894472362" width="73.24476994167792" class="icon-icon-0" data-fill-palette-color="accent" id="SvgjsSvg1605"><g fill="white"><g fill="white"><path d="M54.981 33.014l-1.932-0.518-1.555 5.801 1.932 0.518L54.981 33.014zM34.397 45.632l-7.241-1.938-0.518 1.932 7.241 1.938L34.397 45.632zM63.023 38.254l-1.414-1.414-4.246 4.247 1.414 1.414L63.023 38.254zM95.225 24.457L75.408 4.64l-1.414 1.414 19.816 19.816L95.225 24.457zM46.146 35.297l-1.938-7.243-1.932 0.518 1.938 7.243L46.146 35.297zM75.762 68.686c-0.194-0.193-0.451-0.291-0.707-0.291s-0.513 0.098-0.707 0.291l-4.955 4.957c-0.389 0.389-0.389 1.025 0 1.414l2.125 2.125c0.193 0.193 0.45 0.291 0.707 0.291 0.256 0 0.512-0.098 0.707-0.291l4.955-4.957c0.389-0.389 0.389-1.025 0-1.414L75.762 68.686zM72.225 75.061l-0.711-0.711 3.541-3.543 0.711 0.711L72.225 75.061zM98.83 23.814l-5.695-5.695L76.117 1.1l-0.008 0.008C75.34 0.375 74.349 0 73.353 0c-1.026 0-2.052 0.39-2.831 1.168 0 0-14.893 12.062-24.092 14.185l-3.951-0.829c-5.112 3.697-10.201 8.003-15.113 12.843-4.84 4.912-9.145 10.001-12.843 15.113l0.829 3.95C13.229 55.631 1.166 70.523 1.166 70.523c-1.534 1.533-1.549 4.025-0.06 5.588l-0.007 0.006 0.065 0.064c0 0 0.001 0.002 0.002 0.004l11.29 11.289 11.29 11.291h0l0.066 0.066c0.779 0.779 1.805 1.168 2.831 1.168 1.026 0 2.052-0.389 2.831-1.168 0 0 14.893-12.063 24.093-14.186l3.949 0.83c3.214-2.324 6.414-4.912 9.571-7.697l0.603-3.01 1.414-1.414 4.247-4.248 1.415-1.414 3.01-0.604c2.785-3.158 5.373-6.357 7.697-9.57l-0.83-3.951c2.123-9.2 14.186-24.092 14.186-24.092C100.387 27.919 100.387 25.372 98.83 23.814zM76.116 3.929l15.038 15.038 4.78 4.78-2.833 2.832-0.001-0.001-1.414 1.414 0.001 0.001-2.832 2.833-0.001-0.001L87.44 32.24l0.001 0.001-2.832 2.832-0.002-0.001-1.414 1.414 0.002 0.001L73.147 46.535c-0.825-1.285-1.724-2.539-2.655-3.779-0.105-0.143-0.218-0.283-0.326-0.426-0.499-0.653-1.004-1.304-1.533-1.944-0.238-0.288-0.49-0.572-0.735-0.859-0.448-0.524-0.891-1.05-1.358-1.563-0.44-0.486-0.908-0.963-1.369-1.441-0.299-0.312-0.584-0.631-0.891-0.938-0.3-0.3-0.613-0.578-0.917-0.871-0.486-0.469-0.971-0.943-1.464-1.392-0.502-0.456-1.018-0.89-1.529-1.327-0.299-0.256-0.597-0.521-0.898-0.77-0.631-0.521-1.271-1.018-1.915-1.51-0.152-0.116-0.304-0.236-0.456-0.351-1.238-0.929-2.489-1.825-3.771-2.647l10.048-10.048 0.002 0.001 1.414-1.414-0.002-0.001 2.832-2.832 0.002 0.001 1.414-1.414-0.002-0.001 2.832-2.832 0.002 0.001 1.414-1.414-0.002-0.002L76.116 3.929zM75.066 54.441c-1.666 2.115-6.013 7.512-10.271 11.77-3.278 3.277-9.461 8.365-11.793 10.262-2.126-0.924-4.244-2.051-6.332-3.344-3.781-2.381-7.532-5.35-11.059-8.875-3.527-3.527-6.493-7.277-8.875-11.059-1.294-2.088-2.422-4.207-3.347-6.333 1.897-2.332 6.984-8.514 10.263-11.792 3.692-3.692 9.541-8.465 11.784-10.267 4.513 1.96 8.995 4.793 13.208 8.329 0.076 0.064 0.152 0.131 0.229 0.195 0.59 0.5 1.174 1.016 1.752 1.542 0.104 0.095 0.208 0.188 0.312 0.283 0.65 0.601 1.293 1.215 1.927 1.848 0.635 0.635 1.25 1.279 1.852 1.932 0.093 0.1 0.182 0.2 0.272 0.3 0.533 0.585 1.055 1.175 1.56 1.771 0.06 0.071 0.122 0.142 0.181 0.213C70.27 45.433 73.105 49.921 75.066 54.441zM71.781 2.723l0.081-0.066 0.074-0.074C72.312 2.207 72.814 2 73.353 2c0.505 0 0.976 0.188 1.343 0.521l-2.826 2.825L70.362 3.84C71.168 3.216 71.676 2.807 71.781 2.723zM68.757 5.063l1.698 1.698-2.832 2.832-2.145-2.145C66.715 6.576 67.823 5.762 68.757 5.063zM63.809 8.608l2.4 2.399-2.832 2.832-2.983-2.982C61.58 10.106 62.729 9.347 63.809 8.608zM17.3 46.88l0.099-0.43-0.09-0.432-0.646-3.079c3.571-4.859 7.647-9.622 12.107-14.148 4.548-4.481 9.311-8.558 14.168-12.128l3.081 0.646 0.431 0.091 0.429-0.099c3.537-0.816 7.786-2.962 11.768-5.364l3.316 3.315L51.531 25.685c-2.15-1.254-4.3-2.331-6.416-3.185 0 0-8.116 6.394-12.877 11.155-4.2 4.199-11.155 12.877-11.155 12.877 0.854 2.115 1.931 4.266 3.185 6.417l-9.016 9.016-3.317-3.316C14.338 54.666 16.484 50.417 17.3 46.88zM10.855 60.395l2.984 2.984-2.833 2.832-2.4-2.4C9.345 62.729 10.104 61.582 10.855 60.395zM7.447 65.479l2.146 2.146L6.76 70.457l-1.7-1.699C5.76 67.824 6.574 66.715 7.447 65.479zM2.581 71.938l0.074-0.074 0.066-0.082c0.084-0.104 0.494-0.611 1.118-1.418l1.508 1.508L2.52 74.697C1.807 73.912 1.822 72.695 2.581 71.938zM23.747 95.938l-6.443-6.443L3.928 76.117l2.833-2.832 0.001 0.002 1.414-1.414-0.001-0.002 2.833-2.832 0.001 0.002 1.414-1.414-0.001-0.002 2.832-2.832 0.001 0.002 1.414-1.414-0.001-0.002 8.664-8.664c0.068 0.105 0.145 0.209 0.213 0.314 2.343 3.646 5.22 7.262 8.625 10.666 3.404 3.404 7.019 6.281 10.666 8.623 0.105 0.068 0.208 0.146 0.314 0.215l-8.664 8.664-0.001-0.002-1.414 1.414 0.001 0.002-2.833 2.832h0l-1.414 1.414h0l-2.832 2.832-0.001-0.002-1.414 1.414 0.001 0.002L23.747 95.938zM28.216 97.277l-0.082 0.066-0.074 0.074C27.685 97.793 27.182 98 26.644 98s-1.041-0.207-1.417-0.582l-0.066-0.066 2.833-2.834 1.642 1.643C28.829 96.783 28.321 97.193 28.216 97.277zM31.241 94.938l-1.833-1.834 2.832-2.832 2.28 2.279C33.283 93.424 32.174 94.236 31.241 94.938zM36.188 91.393l-2.535-2.535 2.833-2.832 3.117 3.117C38.417 89.895 37.269 90.652 36.188 91.393zM82.696 53.119l-0.099 0.43 0.09 0.432 0.646 3.08c-1.969 2.674-4.189 5.428-6.613 8.201l-2.346 0.471-0.593 0.119-0.429 0.428-1.415 1.414-4.247 4.248-1.414 1.414-0.429 0.428-0.118 0.594-0.47 2.346c-2.773 2.424-5.526 4.643-8.202 6.613l-3.08-0.646-0.432-0.09-0.429 0.098c-3.536 0.816-7.787 2.963-11.768 5.365l-3.45-3.451 9.016-9.016c2.15 1.254 4.301 2.33 6.416 3.184 0 0 8.679-6.955 12.878-11.154 5.548-5.547 11.154-12.877 11.154-12.877-0.854-2.115-1.932-4.265-3.185-6.416l10.431-10.431 3.451 3.45C85.658 45.333 83.512 49.583 82.696 53.119zM89.141 39.605l-3.117-3.117 2.832-2.833 2.535 2.534C90.651 37.271 89.893 38.417 89.141 39.605zM92.549 34.52l-2.279-2.279 2.832-2.832 1.834 1.833C94.235 32.175 93.422 33.284 92.549 34.52zM97.416 28.062l-0.074 0.074-0.066 0.081c-0.084 0.104-0.493 0.612-1.117 1.419l-1.643-1.642 2.834-2.833 0.066 0.066c0.375 0.376 0.582 0.879 0.582 1.417S97.791 27.687 97.416 28.062zM65.502 14.547l19.815 19.815 1.414-1.414L66.916 13.133 65.502 14.547zM69.748 10.3l19.815 19.815 1.414-1.414L71.162 8.886 69.748 10.3zM61.256 18.792L81.07 38.609l1.414-1.414L62.67 17.378 61.256 18.792zM43.466 68.266l1.932 0.518 1.554-5.801-1.932-0.518L43.466 68.266zM61.566 48.369l5.801-1.555-0.518-1.932-5.801 1.555L61.566 48.369zM36.881 52.912l-5.801 1.555 0.518 1.932 5.801-1.555L36.881 52.912zM38.607 81.072L18.792 61.258l-1.414 1.414 19.816 19.814L38.607 81.072zM53.076 48.306l-3.115 1.335h-0.016l-4.019-12.056-1.897 0.633 4.073 12.22L33.26 56.799l0.788 1.838 14.688-6.295 0.954 2.861 1.897-0.633-0.977-2.93h18.428v-2H53.648L53.076 48.306zM34.361 85.318L14.545 65.502l-1.414 1.414 19.816 19.816L34.361 85.318zM4.639 75.41l19.816 19.814 1.414-1.414L6.053 73.996 4.639 75.41zM30.115 89.564L10.299 69.75l-1.414 1.414 19.816 19.814L30.115 89.564zM35.424 63.025l1.414 1.414 4.247-4.244-1.414-1.414L35.424 63.025zM57.363 60.195l4.246 4.244 1.414-1.414-4.246-4.244L57.363 60.195zM64.049 55.648l7.242 1.939 0.518-1.932-7.242-1.939L64.049 55.648zM52.301 65.984l1.938 7.242 1.932-0.518-1.938-7.242L52.301 65.984z" fill="white"></path></g></g></svg></g></svg></g><g></g></svg></g><defs><mask></mask></defs><mask><g id="SvgjsG1604"><svg viewBox="0 0 395.52 155.27622868126906" height="155.27622868126906" width="395.52"><g><svg viewBox="0 0 397.4975999999999 156.0526098246754" height="155.27622868126906" width="395.52"><g><rect width="397.4975999999999" height="4.779685330203016" x="0" y="85.75965420703518" fill="black" opacity="1" stroke-width="0" stroke="transparent" fill-opacity="1" class="rect-qz-0" rx="1%" id="SvgjsRect1603" data-palette-color="url(#99f43863-4e1e-4cab-a283-1aaa4008967f)"></rect></g><g transform="matrix(1,0,0,1,0.9887999999999693,103.05160479954975)"><svg viewBox="0 0 395.52 53.00100502512563" height="53.00100502512563" width="395.52"><g id="SvgjsG1602"><svg viewBox="0 0 395.52 53.00100502512563" height="53.00100502512563" width="395.52" id="SvgjsSvg1601"><g><svg viewBox="0 0 395.52 53.00100502512563" height="53.00100502512563" width="395.52"><g transform="matrix(1,0,0,1,0,0)"><svg width="395.52" viewBox="0.54 -40.5 306.04999999999995 41.01" height="53.00100502512563" data-palette-color="url(#96be3e11-4adf-4727-90ed-925a7e0ad7de)"><path d="M14.18 0L0.54-28.83 8.91-28.83 16.41-11.5 18.6-6.64 21.29-12.94 14.16-28.83 21.19-28.83 24.68-20.29 28.17-28.83 35.21-28.83 28.05-12.94 30.76-6.64 32.96-11.5 40.45-28.83 48.83-28.83 35.18 0 27.32 0 24.68-5.57 22.05 0 14.18 0ZM53.88 0L53.88-28.81 61.11-28.81 61.11-24.66Q63.5-26.44 66.16-27.73 68.82-29.03 71.46-29.71L71.46-29.71 73.58-23.1Q69.41-22.68 66.25-21.23 63.08-19.78 61.11-17.14L61.11-17.14 61.11 0 53.88 0ZM82.76-32.74L82.76-32.74Q81.68-32.74 80.82-33.04 79.95-33.35 79.34-33.87 78.73-34.4 78.4-35.1 78.07-35.79 78.07-36.57L78.07-36.57Q78.07-37.38 78.4-38.07 78.73-38.77 79.34-39.28 79.95-39.79 80.82-40.1 81.68-40.41 82.76-40.41L82.76-40.41Q83.86-40.41 84.72-40.1 85.59-39.79 86.2-39.28 86.81-38.77 87.14-38.07 87.47-37.38 87.47-36.57L87.47-36.57Q87.47-35.79 87.14-35.1 86.81-34.4 86.2-33.87 85.59-33.35 84.72-33.04 83.86-32.74 82.76-32.74ZM79.15 0L79.15-28.81 86.37-28.81 86.37 0 79.15 0ZM93.64-3.37L96.77-8.84Q99.7-7.08 103.22-6.25 106.73-5.42 110.42-5.42L110.42-5.42Q112.91-5.42 114.57-5.76 116.23-6.1 117.23-6.64 118.23-7.18 118.64-7.86 119.06-8.54 119.06-9.25L119.06-9.25Q119.06-10.28 118.17-11.01 117.28-11.74 115.23-11.74L115.23-11.74Q114.27-11.74 113.18-11.62 112.08-11.5 110.87-11.36 109.66-11.23 108.35-11.11 107.05-10.99 105.71-10.99L105.71-10.99Q102.78-10.99 100.71-11.62 98.65-12.26 97.36-13.35 96.06-14.45 95.48-15.95 94.89-17.46 94.89-19.19L94.89-19.19Q94.89-21.39 95.92-23.24 96.94-25.1 98.85-26.45 100.75-27.81 103.45-28.56 106.14-29.32 109.47-29.32L109.47-29.32Q111.2-29.32 113.09-29.11 114.98-28.91 116.81-28.56 118.64-28.22 120.33-27.77 122.01-27.32 123.31-26.81L123.31-26.81 121.04-21.19Q118.28-22.22 115.53-22.81 112.79-23.41 109.88-23.41L109.88-23.41Q107.85-23.41 106.45-23.11 105.05-22.8 104.17-22.3 103.29-21.8 102.89-21.15 102.48-20.51 102.48-19.8L102.48-19.8Q102.48-19.29 102.69-18.87 102.9-18.46 103.37-18.15 103.85-17.85 104.62-17.69 105.39-17.53 106.51-17.53L106.51-17.53Q107.54-17.53 108.68-17.65 109.83-17.77 111.08-17.91 112.32-18.04 113.65-18.16 114.98-18.29 116.37-18.29L116.37-18.29Q118.96-18.29 120.9-17.68 122.84-17.07 124.11-15.97 125.38-14.87 126.02-13.38 126.65-11.89 126.65-10.13L126.65-10.13Q126.65-7.86 125.6-5.91 124.55-3.96 122.48-2.53 120.4-1.1 117.31-0.29 114.23 0.51 110.17 0.51L110.17 0.51Q107.68 0.51 105.36 0.21 103.04-0.1 100.94-0.62 98.85-1.15 97-1.86 95.16-2.56 93.64-3.37L93.64-3.37ZM137.49 0L137.49-23.39 130.53-23.39 130.53-28.81 137.49-28.81 137.49-37.77 144.72-37.77 144.72-28.81 151.67-28.81 151.67-23.39 144.72-23.39 144.72 0 137.49 0ZM174.89 0L174.89-28.81 182.11-28.81 182.11-26.37Q184.82-28.03 187.4-28.67 189.98-29.32 192.44-29.32L192.44-29.32Q195.88-29.32 198.76-28.22 201.65-27.12 203.7-24.9L203.7-24.9Q205.28-26.12 206.82-26.97 208.36-27.81 209.9-28.33 211.44-28.86 213.02-29.09 214.61-29.32 216.29-29.32L216.29-29.32Q219.83-29.32 222.71-28.36 225.6-27.39 227.63-25.49 229.67-23.58 230.78-20.74 231.89-17.9 231.89-14.16L231.89-14.16 231.89 0 224.69 0 224.69-12.99Q224.69-15.36 224.02-17.22 223.35-19.09 222.14-20.37 220.93-21.66 219.26-22.33 217.59-23 215.59-23L215.59-23Q214.49-23 213.34-22.79 212.19-22.58 211.11-22.14 210.02-21.7 209.07-21.03 208.11-20.36 207.41-19.46L207.41-19.46 207.41 0 200.2 0 200.2-12.99Q200.2-15.36 199.53-17.22 198.86-19.09 197.65-20.37 196.44-21.66 194.75-22.33 193.05-23 191.03-23L191.03-23Q189.78-23 188.52-22.74 187.27-22.49 186.11-22.02 184.95-21.56 183.93-20.9 182.92-20.24 182.11-19.41L182.11-19.41 182.11 0 174.89 0ZM239.61-9.08L239.61-9.08Q239.61-11.16 240.51-12.87 241.41-14.58 243.22-15.81 245.03-17.04 247.72-17.71 250.42-18.38 254.01-18.38L254.01-18.38Q256.67-18.38 259.61-17.99 262.56-17.6 265.68-16.8L265.68-16.8Q265.56-18.16 264.85-19.32 264.14-20.48 262.89-21.33 261.63-22.17 259.86-22.63 258.09-23.1 255.84-23.1L255.84-23.1Q254.62-23.1 253.16-22.95 251.69-22.8 250.13-22.51 248.57-22.22 247.04-21.78 245.51-21.34 244.2-20.73L244.2-20.73 242-26.66Q243.63-27.25 245.5-27.73 247.37-28.22 249.32-28.58 251.28-28.93 253.23-29.13 255.18-29.32 257.01-29.32L257.01-29.32Q265.09-29.32 269.03-25.2 272.96-21.07 272.96-12.55L272.96-12.55 272.96 0 265.73 0 265.73-2.71Q264.61-2.05 263.28-1.46 261.95-0.88 260.38-0.44 258.82 0 257.03 0.26 255.23 0.51 253.23 0.51L253.23 0.51Q249.86 0.51 247.31-0.22 244.76-0.95 243.05-2.25 241.34-3.54 240.47-5.29 239.61-7.03 239.61-9.08ZM247.22-9.33L247.22-9.33Q247.22-8.62 247.59-7.97 247.96-7.32 248.76-6.82 249.57-6.32 250.82-6.02 252.08-5.71 253.86-5.71L253.86-5.71Q255.77-5.71 257.55-6.05 259.33-6.4 260.87-6.96 262.41-7.52 263.65-8.25 264.9-8.98 265.73-9.77L265.73-9.77 265.73-11.04Q264.07-11.5 262.45-11.82 260.82-12.13 259.35-12.32 257.87-12.5 256.56-12.57 255.26-12.65 254.28-12.65L254.28-12.65Q252.25-12.65 250.91-12.38 249.57-12.11 248.74-11.66 247.91-11.21 247.57-10.6 247.22-9.99 247.22-9.33ZM282.69 0L282.69-40.5 289.92-40.5 289.92 0 282.69 0ZM299.37 0L299.37-40.5 306.59-40.5 306.59 0 299.37 0Z" opacity="1" transform="matrix(1,0,0,1,0,0)" fill="black" class="wordmark-text-0" id="SvgjsPath1600"></path></svg></g></svg></g></svg></g></svg></g><g transform="matrix(1,0,0,1,154.126415029161,0)"><svg viewBox="0 0 89.24476994167792 73.24738894472362" height="73.24738894472362" width="89.24476994167792"><g><svg xmlns="http://www.w3.org/2000/svg" xmlns:xlink="http://www.w3.org/1999/xlink" version="1.1" x="8" y="0" viewBox="0.0022005525735069864 0 99.9954244775228 99.999" enable-background="new 0 0 100 100" xml:space="preserve" height="73.24738894472362" width="73.24476994167792" class="icon-icon-0" data-fill-palette-color="accent" id="SvgjsSvg1599"><g fill="black"><g fill="black"><path d="M54.981 33.014l-1.932-0.518-1.555 5.801 1.932 0.518L54.981 33.014zM34.397 45.632l-7.241-1.938-0.518 1.932 7.241 1.938L34.397 45.632zM63.023 38.254l-1.414-1.414-4.246 4.247 1.414 1.414L63.023 38.254zM95.225 24.457L75.408 4.64l-1.414 1.414 19.816 19.816L95.225 24.457zM46.146 35.297l-1.938-7.243-1.932 0.518 1.938 7.243L46.146 35.297zM75.762 68.686c-0.194-0.193-0.451-0.291-0.707-0.291s-0.513 0.098-0.707 0.291l-4.955 4.957c-0.389 0.389-0.389 1.025 0 1.414l2.125 2.125c0.193 0.193 0.45 0.291 0.707 0.291 0.256 0 0.512-0.098 0.707-0.291l4.955-4.957c0.389-0.389 0.389-1.025 0-1.414L75.762 68.686zM72.225 75.061l-0.711-0.711 3.541-3.543 0.711 0.711L72.225 75.061zM98.83 23.814l-5.695-5.695L76.117 1.1l-0.008 0.008C75.34 0.375 74.349 0 73.353 0c-1.026 0-2.052 0.39-2.831 1.168 0 0-14.893 12.062-24.092 14.185l-3.951-0.829c-5.112 3.697-10.201 8.003-15.113 12.843-4.84 4.912-9.145 10.001-12.843 15.113l0.829 3.95C13.229 55.631 1.166 70.523 1.166 70.523c-1.534 1.533-1.549 4.025-0.06 5.588l-0.007 0.006 0.065 0.064c0 0 0.001 0.002 0.002 0.004l11.29 11.289 11.29 11.291h0l0.066 0.066c0.779 0.779 1.805 1.168 2.831 1.168 1.026 0 2.052-0.389 2.831-1.168 0 0 14.893-12.063 24.093-14.186l3.949 0.83c3.214-2.324 6.414-4.912 9.571-7.697l0.603-3.01 1.414-1.414 4.247-4.248 1.415-1.414 3.01-0.604c2.785-3.158 5.373-6.357 7.697-9.57l-0.83-3.951c2.123-9.2 14.186-24.092 14.186-24.092C100.387 27.919 100.387 25.372 98.83 23.814zM76.116 3.929l15.038 15.038 4.78 4.78-2.833 2.832-0.001-0.001-1.414 1.414 0.001 0.001-2.832 2.833-0.001-0.001L87.44 32.24l0.001 0.001-2.832 2.832-0.002-0.001-1.414 1.414 0.002 0.001L73.147 46.535c-0.825-1.285-1.724-2.539-2.655-3.779-0.105-0.143-0.218-0.283-0.326-0.426-0.499-0.653-1.004-1.304-1.533-1.944-0.238-0.288-0.49-0.572-0.735-0.859-0.448-0.524-0.891-1.05-1.358-1.563-0.44-0.486-0.908-0.963-1.369-1.441-0.299-0.312-0.584-0.631-0.891-0.938-0.3-0.3-0.613-0.578-0.917-0.871-0.486-0.469-0.971-0.943-1.464-1.392-0.502-0.456-1.018-0.89-1.529-1.327-0.299-0.256-0.597-0.521-0.898-0.77-0.631-0.521-1.271-1.018-1.915-1.51-0.152-0.116-0.304-0.236-0.456-0.351-1.238-0.929-2.489-1.825-3.771-2.647l10.048-10.048 0.002 0.001 1.414-1.414-0.002-0.001 2.832-2.832 0.002 0.001 1.414-1.414-0.002-0.001 2.832-2.832 0.002 0.001 1.414-1.414-0.002-0.002L76.116 3.929zM75.066 54.441c-1.666 2.115-6.013 7.512-10.271 11.77-3.278 3.277-9.461 8.365-11.793 10.262-2.126-0.924-4.244-2.051-6.332-3.344-3.781-2.381-7.532-5.35-11.059-8.875-3.527-3.527-6.493-7.277-8.875-11.059-1.294-2.088-2.422-4.207-3.347-6.333 1.897-2.332 6.984-8.514 10.263-11.792 3.692-3.692 9.541-8.465 11.784-10.267 4.513 1.96 8.995 4.793 13.208 8.329 0.076 0.064 0.152 0.131 0.229 0.195 0.59 0.5 1.174 1.016 1.752 1.542 0.104 0.095 0.208 0.188 0.312 0.283 0.65 0.601 1.293 1.215 1.927 1.848 0.635 0.635 1.25 1.279 1.852 1.932 0.093 0.1 0.182 0.2 0.272 0.3 0.533 0.585 1.055 1.175 1.56 1.771 0.06 0.071 0.122 0.142 0.181 0.213C70.27 45.433 73.105 49.921 75.066 54.441zM71.781 2.723l0.081-0.066 0.074-0.074C72.312 2.207 72.814 2 73.353 2c0.505 0 0.976 0.188 1.343 0.521l-2.826 2.825L70.362 3.84C71.168 3.216 71.676 2.807 71.781 2.723zM68.757 5.063l1.698 1.698-2.832 2.832-2.145-2.145C66.715 6.576 67.823 5.762 68.757 5.063zM63.809 8.608l2.4 2.399-2.832 2.832-2.983-2.982C61.58 10.106 62.729 9.347 63.809 8.608zM17.3 46.88l0.099-0.43-0.09-0.432-0.646-3.079c3.571-4.859 7.647-9.622 12.107-14.148 4.548-4.481 9.311-8.558 14.168-12.128l3.081 0.646 0.431 0.091 0.429-0.099c3.537-0.816 7.786-2.962 11.768-5.364l3.316 3.315L51.531 25.685c-2.15-1.254-4.3-2.331-6.416-3.185 0 0-8.116 6.394-12.877 11.155-4.2 4.199-11.155 12.877-11.155 12.877 0.854 2.115 1.931 4.266 3.185 6.417l-9.016 9.016-3.317-3.316C14.338 54.666 16.484 50.417 17.3 46.88zM10.855 60.395l2.984 2.984-2.833 2.832-2.4-2.4C9.345 62.729 10.104 61.582 10.855 60.395zM7.447 65.479l2.146 2.146L6.76 70.457l-1.7-1.699C5.76 67.824 6.574 66.715 7.447 65.479zM2.581 71.938l0.074-0.074 0.066-0.082c0.084-0.104 0.494-0.611 1.118-1.418l1.508 1.508L2.52 74.697C1.807 73.912 1.822 72.695 2.581 71.938zM23.747 95.938l-6.443-6.443L3.928 76.117l2.833-2.832 0.001 0.002 1.414-1.414-0.001-0.002 2.833-2.832 0.001 0.002 1.414-1.414-0.001-0.002 2.832-2.832 0.001 0.002 1.414-1.414-0.001-0.002 8.664-8.664c0.068 0.105 0.145 0.209 0.213 0.314 2.343 3.646 5.22 7.262 8.625 10.666 3.404 3.404 7.019 6.281 10.666 8.623 0.105 0.068 0.208 0.146 0.314 0.215l-8.664 8.664-0.001-0.002-1.414 1.414 0.001 0.002-2.833 2.832h0l-1.414 1.414h0l-2.832 2.832-0.001-0.002-1.414 1.414 0.001 0.002L23.747 95.938zM28.216 97.277l-0.082 0.066-0.074 0.074C27.685 97.793 27.182 98 26.644 98s-1.041-0.207-1.417-0.582l-0.066-0.066 2.833-2.834 1.642 1.643C28.829 96.783 28.321 97.193 28.216 97.277zM31.241 94.938l-1.833-1.834 2.832-2.832 2.28 2.279C33.283 93.424 32.174 94.236 31.241 94.938zM36.188 91.393l-2.535-2.535 2.833-2.832 3.117 3.117C38.417 89.895 37.269 90.652 36.188 91.393zM82.696 53.119l-0.099 0.43 0.09 0.432 0.646 3.08c-1.969 2.674-4.189 5.428-6.613 8.201l-2.346 0.471-0.593 0.119-0.429 0.428-1.415 1.414-4.247 4.248-1.414 1.414-0.429 0.428-0.118 0.594-0.47 2.346c-2.773 2.424-5.526 4.643-8.202 6.613l-3.08-0.646-0.432-0.09-0.429 0.098c-3.536 0.816-7.787 2.963-11.768 5.365l-3.45-3.451 9.016-9.016c2.15 1.254 4.301 2.33 6.416 3.184 0 0 8.679-6.955 12.878-11.154 5.548-5.547 11.154-12.877 11.154-12.877-0.854-2.115-1.932-4.265-3.185-6.416l10.431-10.431 3.451 3.45C85.658 45.333 83.512 49.583 82.696 53.119zM89.141 39.605l-3.117-3.117 2.832-2.833 2.535 2.534C90.651 37.271 89.893 38.417 89.141 39.605zM92.549 34.52l-2.279-2.279 2.832-2.832 1.834 1.833C94.235 32.175 93.422 33.284 92.549 34.52zM97.416 28.062l-0.074 0.074-0.066 0.081c-0.084 0.104-0.493 0.612-1.117 1.419l-1.643-1.642 2.834-2.833 0.066 0.066c0.375 0.376 0.582 0.879 0.582 1.417S97.791 27.687 97.416 28.062zM65.502 14.547l19.815 19.815 1.414-1.414L66.916 13.133 65.502 14.547zM69.748 10.3l19.815 19.815 1.414-1.414L71.162 8.886 69.748 10.3zM61.256 18.792L81.07 38.609l1.414-1.414L62.67 17.378 61.256 18.792zM43.466 68.266l1.932 0.518 1.554-5.801-1.932-0.518L43.466 68.266zM61.566 48.369l5.801-1.555-0.518-1.932-5.801 1.555L61.566 48.369zM36.881 52.912l-5.801 1.555 0.518 1.932 5.801-1.555L36.881 52.912zM38.607 81.072L18.792 61.258l-1.414 1.414 19.816 19.814L38.607 81.072zM53.076 48.306l-3.115 1.335h-0.016l-4.019-12.056-1.897 0.633 4.073 12.22L33.26 56.799l0.788 1.838 14.688-6.295 0.954 2.861 1.897-0.633-0.977-2.93h18.428v-2H53.648L53.076 48.306zM34.361 85.318L14.545 65.502l-1.414 1.414 19.816 19.816L34.361 85.318zM4.639 75.41l19.816 19.814 1.414-1.414L6.053 73.996 4.639 75.41zM30.115 89.564L10.299 69.75l-1.414 1.414 19.816 19.814L30.115 89.564zM35.424 63.025l1.414 1.414 4.247-4.244-1.414-1.414L35.424 63.025zM57.363 60.195l4.246 4.244 1.414-1.414-4.246-4.244L57.363 60.195zM64.049 55.648l7.242 1.939 0.518-1.932-7.242-1.939L64.049 55.648zM52.301 65.984l1.938 7.242 1.932-0.518-1.938-7.242L52.301 65.984z" fill="black"></path></g></g></svg></g></svg></g><g><rect width="77.59329502916103" height="4.779685330203016" y="67.46770361452062" x="243.3711849708389" fill="black"></rect><rect width="77.59329502916103" height="4.779685330203016" y="67.46770361452062" x="76.53311999999997" fill="black"></rect></g></svg></g><defs><mask></mask></defs></svg><rect width="395.52" height="155.27622868126906" fill="black" stroke="none" visibility="hidden"></rect></g></mask><mask><g id="SvgjsG1598"><svg viewBox="0 0 395.52 155.27622868126906" height="155.27622868126906" width="395.52"><g><svg viewBox="0 0 397.4975999999999 156.0526098246754" height="155.27622868126906" width="395.52"><g><rect width="397.4975999999999" height="4.779685330203016" x="0" y="85.75965420703518" fill="black" opacity="1" stroke-width="0" stroke="transparent" fill-opacity="1" class="rect-qz-0" rx="1%" id="SvgjsRect1597" data-palette-color="url(#99f43863-4e1e-4cab-a283-1aaa4008967f)"></rect></g><g transform="matrix(1,0,0,1,0.9887999999999693,103.05160479954975)"><svg viewBox="0 0 395.52 53.00100502512563" height="53.00100502512563" width="395.52"><g id="SvgjsG1596"><svg viewBox="0 0 395.52 53.00100502512563" height="53.00100502512563" width="395.52" id="SvgjsSvg1595"><g><svg viewBox="0 0 395.52 53.00100502512563" height="53.00100502512563" width="395.52"><g transform="matrix(1,0,0,1,0,0)"><svg width="395.52" viewBox="0.54 -40.5 306.04999999999995 41.01" height="53.00100502512563" data-palette-color="url(#96be3e11-4adf-4727-90ed-925a7e0ad7de)"></svg></g></svg></g></svg></g></svg></g><g transform="matrix(1,0,0,1,154.126415029161,0)"><svg viewBox="0 0 89.24476994167792 73.24738894472362" height="73.24738894472362" width="89.24476994167792"><g><svg xmlns="http://www.w3.org/2000/svg" xmlns:xlink="http://www.w3.org/1999/xlink" version="1.1" x="8" y="0" viewBox="0.0022005525735069864 0 99.9954244775228 99.999" enable-background="new 0 0 100 100" xml:space="preserve" height="73.24738894472362" width="73.24476994167792" class="icon-icon-0" data-fill-palette-color="accent" id="SvgjsSvg1594"><g fill="black"><g fill="black"><path d="M54.981 33.014l-1.932-0.518-1.555 5.801 1.932 0.518L54.981 33.014zM34.397 45.632l-7.241-1.938-0.518 1.932 7.241 1.938L34.397 45.632zM63.023 38.254l-1.414-1.414-4.246 4.247 1.414 1.414L63.023 38.254zM95.225 24.457L75.408 4.64l-1.414 1.414 19.816 19.816L95.225 24.457zM46.146 35.297l-1.938-7.243-1.932 0.518 1.938 7.243L46.146 35.297zM75.762 68.686c-0.194-0.193-0.451-0.291-0.707-0.291s-0.513 0.098-0.707 0.291l-4.955 4.957c-0.389 0.389-0.389 1.025 0 1.414l2.125 2.125c0.193 0.193 0.45 0.291 0.707 0.291 0.256 0 0.512-0.098 0.707-0.291l4.955-4.957c0.389-0.389 0.389-1.025 0-1.414L75.762 68.686zM72.225 75.061l-0.711-0.711 3.541-3.543 0.711 0.711L72.225 75.061zM98.83 23.814l-5.695-5.695L76.117 1.1l-0.008 0.008C75.34 0.375 74.349 0 73.353 0c-1.026 0-2.052 0.39-2.831 1.168 0 0-14.893 12.062-24.092 14.185l-3.951-0.829c-5.112 3.697-10.201 8.003-15.113 12.843-4.84 4.912-9.145 10.001-12.843 15.113l0.829 3.95C13.229 55.631 1.166 70.523 1.166 70.523c-1.534 1.533-1.549 4.025-0.06 5.588l-0.007 0.006 0.065 0.064c0 0 0.001 0.002 0.002 0.004l11.29 11.289 11.29 11.291h0l0.066 0.066c0.779 0.779 1.805 1.168 2.831 1.168 1.026 0 2.052-0.389 2.831-1.168 0 0 14.893-12.063 24.093-14.186l3.949 0.83c3.214-2.324 6.414-4.912 9.571-7.697l0.603-3.01 1.414-1.414 4.247-4.248 1.415-1.414 3.01-0.604c2.785-3.158 5.373-6.357 7.697-9.57l-0.83-3.951c2.123-9.2 14.186-24.092 14.186-24.092C100.387 27.919 100.387 25.372 98.83 23.814zM76.116 3.929l15.038 15.038 4.78 4.78-2.833 2.832-0.001-0.001-1.414 1.414 0.001 0.001-2.832 2.833-0.001-0.001L87.44 32.24l0.001 0.001-2.832 2.832-0.002-0.001-1.414 1.414 0.002 0.001L73.147 46.535c-0.825-1.285-1.724-2.539-2.655-3.779-0.105-0.143-0.218-0.283-0.326-0.426-0.499-0.653-1.004-1.304-1.533-1.944-0.238-0.288-0.49-0.572-0.735-0.859-0.448-0.524-0.891-1.05-1.358-1.563-0.44-0.486-0.908-0.963-1.369-1.441-0.299-0.312-0.584-0.631-0.891-0.938-0.3-0.3-0.613-0.578-0.917-0.871-0.486-0.469-0.971-0.943-1.464-1.392-0.502-0.456-1.018-0.89-1.529-1.327-0.299-0.256-0.597-0.521-0.898-0.77-0.631-0.521-1.271-1.018-1.915-1.51-0.152-0.116-0.304-0.236-0.456-0.351-1.238-0.929-2.489-1.825-3.771-2.647l10.048-10.048 0.002 0.001 1.414-1.414-0.002-0.001 2.832-2.832 0.002 0.001 1.414-1.414-0.002-0.001 2.832-2.832 0.002 0.001 1.414-1.414-0.002-0.002L76.116 3.929zM75.066 54.441c-1.666 2.115-6.013 7.512-10.271 11.77-3.278 3.277-9.461 8.365-11.793 10.262-2.126-0.924-4.244-2.051-6.332-3.344-3.781-2.381-7.532-5.35-11.059-8.875-3.527-3.527-6.493-7.277-8.875-11.059-1.294-2.088-2.422-4.207-3.347-6.333 1.897-2.332 6.984-8.514 10.263-11.792 3.692-3.692 9.541-8.465 11.784-10.267 4.513 1.96 8.995 4.793 13.208 8.329 0.076 0.064 0.152 0.131 0.229 0.195 0.59 0.5 1.174 1.016 1.752 1.542 0.104 0.095 0.208 0.188 0.312 0.283 0.65 0.601 1.293 1.215 1.927 1.848 0.635 0.635 1.25 1.279 1.852 1.932 0.093 0.1 0.182 0.2 0.272 0.3 0.533 0.585 1.055 1.175 1.56 1.771 0.06 0.071 0.122 0.142 0.181 0.213C70.27 45.433 73.105 49.921 75.066 54.441zM71.781 2.723l0.081-0.066 0.074-0.074C72.312 2.207 72.814 2 73.353 2c0.505 0 0.976 0.188 1.343 0.521l-2.826 2.825L70.362 3.84C71.168 3.216 71.676 2.807 71.781 2.723zM68.757 5.063l1.698 1.698-2.832 2.832-2.145-2.145C66.715 6.576 67.823 5.762 68.757 5.063zM63.809 8.608l2.4 2.399-2.832 2.832-2.983-2.982C61.58 10.106 62.729 9.347 63.809 8.608zM17.3 46.88l0.099-0.43-0.09-0.432-0.646-3.079c3.571-4.859 7.647-9.622 12.107-14.148 4.548-4.481 9.311-8.558 14.168-12.128l3.081 0.646 0.431 0.091 0.429-0.099c3.537-0.816 7.786-2.962 11.768-5.364l3.316 3.315L51.531 25.685c-2.15-1.254-4.3-2.331-6.416-3.185 0 0-8.116 6.394-12.877 11.155-4.2 4.199-11.155 12.877-11.155 12.877 0.854 2.115 1.931 4.266 3.185 6.417l-9.016 9.016-3.317-3.316C14.338 54.666 16.484 50.417 17.3 46.88zM10.855 60.395l2.984 2.984-2.833 2.832-2.4-2.4C9.345 62.729 10.104 61.582 10.855 60.395zM7.447 65.479l2.146 2.146L6.76 70.457l-1.7-1.699C5.76 67.824 6.574 66.715 7.447 65.479zM2.581 71.938l0.074-0.074 0.066-0.082c0.084-0.104 0.494-0.611 1.118-1.418l1.508 1.508L2.52 74.697C1.807 73.912 1.822 72.695 2.581 71.938zM23.747 95.938l-6.443-6.443L3.928 76.117l2.833-2.832 0.001 0.002 1.414-1.414-0.001-0.002 2.833-2.832 0.001 0.002 1.414-1.414-0.001-0.002 2.832-2.832 0.001 0.002 1.414-1.414-0.001-0.002 8.664-8.664c0.068 0.105 0.145 0.209 0.213 0.314 2.343 3.646 5.22 7.262 8.625 10.666 3.404 3.404 7.019 6.281 10.666 8.623 0.105 0.068 0.208 0.146 0.314 0.215l-8.664 8.664-0.001-0.002-1.414 1.414 0.001 0.002-2.833 2.832h0l-1.414 1.414h0l-2.832 2.832-0.001-0.002-1.414 1.414 0.001 0.002L23.747 95.938zM28.216 97.277l-0.082 0.066-0.074 0.074C27.685 97.793 27.182 98 26.644 98s-1.041-0.207-1.417-0.582l-0.066-0.066 2.833-2.834 1.642 1.643C28.829 96.783 28.321 97.193 28.216 97.277zM31.241 94.938l-1.833-1.834 2.832-2.832 2.28 2.279C33.283 93.424 32.174 94.236 31.241 94.938zM36.188 91.393l-2.535-2.535 2.833-2.832 3.117 3.117C38.417 89.895 37.269 90.652 36.188 91.393zM82.696 53.119l-0.099 0.43 0.09 0.432 0.646 3.08c-1.969 2.674-4.189 5.428-6.613 8.201l-2.346 0.471-0.593 0.119-0.429 0.428-1.415 1.414-4.247 4.248-1.414 1.414-0.429 0.428-0.118 0.594-0.47 2.346c-2.773 2.424-5.526 4.643-8.202 6.613l-3.08-0.646-0.432-0.09-0.429 0.098c-3.536 0.816-7.787 2.963-11.768 5.365l-3.45-3.451 9.016-9.016c2.15 1.254 4.301 2.33 6.416 3.184 0 0 8.679-6.955 12.878-11.154 5.548-5.547 11.154-12.877 11.154-12.877-0.854-2.115-1.932-4.265-3.185-6.416l10.431-10.431 3.451 3.45C85.658 45.333 83.512 49.583 82.696 53.119zM89.141 39.605l-3.117-3.117 2.832-2.833 2.535 2.534C90.651 37.271 89.893 38.417 89.141 39.605zM92.549 34.52l-2.279-2.279 2.832-2.832 1.834 1.833C94.235 32.175 93.422 33.284 92.549 34.52zM97.416 28.062l-0.074 0.074-0.066 0.081c-0.084 0.104-0.493 0.612-1.117 1.419l-1.643-1.642 2.834-2.833 0.066 0.066c0.375 0.376 0.582 0.879 0.582 1.417S97.791 27.687 97.416 28.062zM65.502 14.547l19.815 19.815 1.414-1.414L66.916 13.133 65.502 14.547zM69.748 10.3l19.815 19.815 1.414-1.414L71.162 8.886 69.748 10.3zM61.256 18.792L81.07 38.609l1.414-1.414L62.67 17.378 61.256 18.792zM43.466 68.266l1.932 0.518 1.554-5.801-1.932-0.518L43.466 68.266zM61.566 48.369l5.801-1.555-0.518-1.932-5.801 1.555L61.566 48.369zM36.881 52.912l-5.801 1.555 0.518 1.932 5.801-1.555L36.881 52.912zM38.607 81.072L18.792 61.258l-1.414 1.414 19.816 19.814L38.607 81.072zM53.076 48.306l-3.115 1.335h-0.016l-4.019-12.056-1.897 0.633 4.073 12.22L33.26 56.799l0.788 1.838 14.688-6.295 0.954 2.861 1.897-0.633-0.977-2.93h18.428v-2H53.648L53.076 48.306zM34.361 85.318L14.545 65.502l-1.414 1.414 19.816 19.816L34.361 85.318zM4.639 75.41l19.816 19.814 1.414-1.414L6.053 73.996 4.639 75.41zM30.115 89.564L10.299 69.75l-1.414 1.414 19.816 19.814L30.115 89.564zM35.424 63.025l1.414 1.414 4.247-4.244-1.414-1.414L35.424 63.025zM57.363 60.195l4.246 4.244 1.414-1.414-4.246-4.244L57.363 60.195zM64.049 55.648l7.242 1.939 0.518-1.932-7.242-1.939L64.049 55.648zM52.301 65.984l1.938 7.242 1.932-0.518-1.938-7.242L52.301 65.984z" fill="black"></path></g></g></svg></g></svg></g><g><rect width="77.59329502916103" height="4.779685330203016" y="67.46770361452062" x="243.3711849708389" fill="black"></rect><rect width="77.59329502916103" height="4.779685330203016" y="67.46770361452062" x="76.53311999999997" fill="black"></rect></g></svg></g><defs><mask></mask></defs><mask><g id="SvgjsG1593"><svg viewBox="0 0 395.52 155.27622868126906" height="155.27622868126906" width="395.52"><g><svg viewBox="0 0 397.4975999999999 156.0526098246754" height="155.27622868126906" width="395.52"><g><rect width="397.4975999999999" height="4.779685330203016" x="0" y="85.75965420703518" fill="black" opacity="1" stroke-width="0" stroke="transparent" fill-opacity="1" class="rect-qz-0" rx="1%" id="SvgjsRect1592" data-palette-color="url(#99f43863-4e1e-4cab-a283-1aaa4008967f)"></rect></g><g transform="matrix(1,0,0,1,0.9887999999999693,103.05160479954975)"><svg viewBox="0 0 395.52 53.00100502512563" height="53.00100502512563" width="395.52"><g id="SvgjsG1591"><svg viewBox="0 0 395.52 53.00100502512563" height="53.00100502512563" width="395.52" id="SvgjsSvg1590"><g><svg viewBox="0 0 395.52 53.00100502512563" height="53.00100502512563" width="395.52"><g transform="matrix(1,0,0,1,0,0)"><svg width="395.52" viewBox="0.54 -40.5 306.04999999999995 41.01" height="53.00100502512563" data-palette-color="url(#96be3e11-4adf-4727-90ed-925a7e0ad7de)"><path d="M14.18 0L0.54-28.83 8.91-28.83 16.41-11.5 18.6-6.64 21.29-12.94 14.16-28.83 21.19-28.83 24.68-20.29 28.17-28.83 35.21-28.83 28.05-12.94 30.76-6.64 32.96-11.5 40.45-28.83 48.83-28.83 35.18 0 27.32 0 24.68-5.57 22.05 0 14.18 0ZM53.88 0L53.88-28.81 61.11-28.81 61.11-24.66Q63.5-26.44 66.16-27.73 68.82-29.03 71.46-29.71L71.46-29.71 73.58-23.1Q69.41-22.68 66.25-21.23 63.08-19.78 61.11-17.14L61.11-17.14 61.11 0 53.88 0ZM82.76-32.74L82.76-32.74Q81.68-32.74 80.82-33.04 79.95-33.35 79.34-33.87 78.73-34.4 78.4-35.1 78.07-35.79 78.07-36.57L78.07-36.57Q78.07-37.38 78.4-38.07 78.73-38.77 79.34-39.28 79.95-39.79 80.82-40.1 81.68-40.41 82.76-40.41L82.76-40.41Q83.86-40.41 84.72-40.1 85.59-39.79 86.2-39.28 86.81-38.77 87.14-38.07 87.47-37.38 87.47-36.57L87.47-36.57Q87.47-35.79 87.14-35.1 86.81-34.4 86.2-33.87 85.59-33.35 84.72-33.04 83.86-32.74 82.76-32.74ZM79.15 0L79.15-28.81 86.37-28.81 86.37 0 79.15 0ZM93.64-3.37L96.77-8.84Q99.7-7.08 103.22-6.25 106.73-5.42 110.42-5.42L110.42-5.42Q112.91-5.42 114.57-5.76 116.23-6.1 117.23-6.64 118.23-7.18 118.64-7.86 119.06-8.54 119.06-9.25L119.06-9.25Q119.06-10.28 118.17-11.01 117.28-11.74 115.23-11.74L115.23-11.74Q114.27-11.74 113.18-11.62 112.08-11.5 110.87-11.36 109.66-11.23 108.35-11.11 107.05-10.99 105.71-10.99L105.71-10.99Q102.78-10.99 100.71-11.62 98.65-12.26 97.36-13.35 96.06-14.45 95.48-15.95 94.89-17.46 94.89-19.19L94.89-19.19Q94.89-21.39 95.92-23.24 96.94-25.1 98.85-26.45 100.75-27.81 103.45-28.56 106.14-29.32 109.47-29.32L109.47-29.32Q111.2-29.32 113.09-29.11 114.98-28.91 116.81-28.56 118.64-28.22 120.33-27.77 122.01-27.32 123.31-26.81L123.31-26.81 121.04-21.19Q118.28-22.22 115.53-22.81 112.79-23.41 109.88-23.41L109.88-23.41Q107.85-23.41 106.45-23.11 105.05-22.8 104.17-22.3 103.29-21.8 102.89-21.15 102.48-20.51 102.48-19.8L102.48-19.8Q102.48-19.29 102.69-18.87 102.9-18.46 103.37-18.15 103.85-17.85 104.62-17.69 105.39-17.53 106.51-17.53L106.51-17.53Q107.54-17.53 108.68-17.65 109.83-17.77 111.08-17.91 112.32-18.04 113.65-18.16 114.98-18.29 116.37-18.29L116.37-18.29Q118.96-18.29 120.9-17.68 122.84-17.07 124.11-15.97 125.38-14.87 126.02-13.38 126.65-11.89 126.65-10.13L126.65-10.13Q126.65-7.86 125.6-5.91 124.55-3.96 122.48-2.53 120.4-1.1 117.31-0.29 114.23 0.51 110.17 0.51L110.17 0.51Q107.68 0.51 105.36 0.21 103.04-0.1 100.94-0.62 98.85-1.15 97-1.86 95.16-2.56 93.64-3.37L93.64-3.37ZM137.49 0L137.49-23.39 130.53-23.39 130.53-28.81 137.49-28.81 137.49-37.77 144.72-37.77 144.72-28.81 151.67-28.81 151.67-23.39 144.72-23.39 144.72 0 137.49 0ZM174.89 0L174.89-28.81 182.11-28.81 182.11-26.37Q184.82-28.03 187.4-28.67 189.98-29.32 192.44-29.32L192.44-29.32Q195.88-29.32 198.76-28.22 201.65-27.12 203.7-24.9L203.7-24.9Q205.28-26.12 206.82-26.97 208.36-27.81 209.9-28.33 211.44-28.86 213.02-29.09 214.61-29.32 216.29-29.32L216.29-29.32Q219.83-29.32 222.71-28.36 225.6-27.39 227.63-25.49 229.67-23.58 230.78-20.74 231.89-17.9 231.89-14.16L231.89-14.16 231.89 0 224.69 0 224.69-12.99Q224.69-15.36 224.02-17.22 223.35-19.09 222.14-20.37 220.93-21.66 219.26-22.33 217.59-23 215.59-23L215.59-23Q214.49-23 213.34-22.79 212.19-22.58 211.11-22.14 210.02-21.7 209.07-21.03 208.11-20.36 207.41-19.46L207.41-19.46 207.41 0 200.2 0 200.2-12.99Q200.2-15.36 199.53-17.22 198.86-19.09 197.65-20.37 196.44-21.66 194.75-22.33 193.05-23 191.03-23L191.03-23Q189.78-23 188.52-22.74 187.27-22.49 186.11-22.02 184.95-21.56 183.93-20.9 182.92-20.24 182.11-19.41L182.11-19.41 182.11 0 174.89 0ZM239.61-9.08L239.61-9.08Q239.61-11.16 240.51-12.87 241.41-14.58 243.22-15.81 245.03-17.04 247.72-17.71 250.42-18.38 254.01-18.38L254.01-18.38Q256.67-18.38 259.61-17.99 262.56-17.6 265.68-16.8L265.68-16.8Q265.56-18.16 264.85-19.32 264.14-20.48 262.89-21.33 261.63-22.17 259.86-22.63 258.09-23.1 255.84-23.1L255.84-23.1Q254.62-23.1 253.16-22.95 251.69-22.8 250.13-22.51 248.57-22.22 247.04-21.78 245.51-21.34 244.2-20.73L244.2-20.73 242-26.66Q243.63-27.25 245.5-27.73 247.37-28.22 249.32-28.58 251.28-28.93 253.23-29.13 255.18-29.32 257.01-29.32L257.01-29.32Q265.09-29.32 269.03-25.2 272.96-21.07 272.96-12.55L272.96-12.55 272.96 0 265.73 0 265.73-2.71Q264.61-2.05 263.28-1.46 261.95-0.88 260.38-0.44 258.82 0 257.03 0.26 255.23 0.51 253.23 0.51L253.23 0.51Q249.86 0.51 247.31-0.22 244.76-0.95 243.05-2.25 241.34-3.54 240.47-5.29 239.61-7.03 239.61-9.08ZM247.22-9.33L247.22-9.33Q247.22-8.62 247.59-7.97 247.96-7.32 248.76-6.82 249.57-6.32 250.82-6.02 252.08-5.71 253.86-5.71L253.86-5.71Q255.77-5.71 257.55-6.05 259.33-6.4 260.87-6.96 262.41-7.52 263.65-8.25 264.9-8.98 265.73-9.77L265.73-9.77 265.73-11.04Q264.07-11.5 262.45-11.82 260.82-12.13 259.35-12.32 257.87-12.5 256.56-12.57 255.26-12.65 254.28-12.65L254.28-12.65Q252.25-12.65 250.91-12.38 249.57-12.11 248.74-11.66 247.91-11.21 247.57-10.6 247.22-9.99 247.22-9.33ZM282.69 0L282.69-40.5 289.92-40.5 289.92 0 282.69 0ZM299.37 0L299.37-40.5 306.59-40.5 306.59 0 299.37 0Z" opacity="1" transform="matrix(1,0,0,1,0,0)" fill="black" class="wordmark-text-0" id="SvgjsPath1589"></path></svg></g></svg></g></svg></g></svg></g><g transform="matrix(1,0,0,1,154.126415029161,0)"><svg viewBox="0 0 89.24476994167792 73.24738894472362" height="73.24738894472362" width="89.24476994167792"><g><svg xmlns="http://www.w3.org/2000/svg" xmlns:xlink="http://www.w3.org/1999/xlink" version="1.1" x="8" y="0" viewBox="0.0022005525735069864 0 99.9954244775228 99.999" enable-background="new 0 0 100 100" xml:space="preserve" height="73.24738894472362" width="73.24476994167792" class="icon-icon-0" data-fill-palette-color="accent" id="SvgjsSvg1588"><g fill="black"><g fill="black"><path d="M54.981 33.014l-1.932-0.518-1.555 5.801 1.932 0.518L54.981 33.014zM34.397 45.632l-7.241-1.938-0.518 1.932 7.241 1.938L34.397 45.632zM63.023 38.254l-1.414-1.414-4.246 4.247 1.414 1.414L63.023 38.254zM95.225 24.457L75.408 4.64l-1.414 1.414 19.816 19.816L95.225 24.457zM46.146 35.297l-1.938-7.243-1.932 0.518 1.938 7.243L46.146 35.297zM75.762 68.686c-0.194-0.193-0.451-0.291-0.707-0.291s-0.513 0.098-0.707 0.291l-4.955 4.957c-0.389 0.389-0.389 1.025 0 1.414l2.125 2.125c0.193 0.193 0.45 0.291 0.707 0.291 0.256 0 0.512-0.098 0.707-0.291l4.955-4.957c0.389-0.389 0.389-1.025 0-1.414L75.762 68.686zM72.225 75.061l-0.711-0.711 3.541-3.543 0.711 0.711L72.225 75.061zM98.83 23.814l-5.695-5.695L76.117 1.1l-0.008 0.008C75.34 0.375 74.349 0 73.353 0c-1.026 0-2.052 0.39-2.831 1.168 0 0-14.893 12.062-24.092 14.185l-3.951-0.829c-5.112 3.697-10.201 8.003-15.113 12.843-4.84 4.912-9.145 10.001-12.843 15.113l0.829 3.95C13.229 55.631 1.166 70.523 1.166 70.523c-1.534 1.533-1.549 4.025-0.06 5.588l-0.007 0.006 0.065 0.064c0 0 0.001 0.002 0.002 0.004l11.29 11.289 11.29 11.291h0l0.066 0.066c0.779 0.779 1.805 1.168 2.831 1.168 1.026 0 2.052-0.389 2.831-1.168 0 0 14.893-12.063 24.093-14.186l3.949 0.83c3.214-2.324 6.414-4.912 9.571-7.697l0.603-3.01 1.414-1.414 4.247-4.248 1.415-1.414 3.01-0.604c2.785-3.158 5.373-6.357 7.697-9.57l-0.83-3.951c2.123-9.2 14.186-24.092 14.186-24.092C100.387 27.919 100.387 25.372 98.83 23.814zM76.116 3.929l15.038 15.038 4.78 4.78-2.833 2.832-0.001-0.001-1.414 1.414 0.001 0.001-2.832 2.833-0.001-0.001L87.44 32.24l0.001 0.001-2.832 2.832-0.002-0.001-1.414 1.414 0.002 0.001L73.147 46.535c-0.825-1.285-1.724-2.539-2.655-3.779-0.105-0.143-0.218-0.283-0.326-0.426-0.499-0.653-1.004-1.304-1.533-1.944-0.238-0.288-0.49-0.572-0.735-0.859-0.448-0.524-0.891-1.05-1.358-1.563-0.44-0.486-0.908-0.963-1.369-1.441-0.299-0.312-0.584-0.631-0.891-0.938-0.3-0.3-0.613-0.578-0.917-0.871-0.486-0.469-0.971-0.943-1.464-1.392-0.502-0.456-1.018-0.89-1.529-1.327-0.299-0.256-0.597-0.521-0.898-0.77-0.631-0.521-1.271-1.018-1.915-1.51-0.152-0.116-0.304-0.236-0.456-0.351-1.238-0.929-2.489-1.825-3.771-2.647l10.048-10.048 0.002 0.001 1.414-1.414-0.002-0.001 2.832-2.832 0.002 0.001 1.414-1.414-0.002-0.001 2.832-2.832 0.002 0.001 1.414-1.414-0.002-0.002L76.116 3.929zM75.066 54.441c-1.666 2.115-6.013 7.512-10.271 11.77-3.278 3.277-9.461 8.365-11.793 10.262-2.126-0.924-4.244-2.051-6.332-3.344-3.781-2.381-7.532-5.35-11.059-8.875-3.527-3.527-6.493-7.277-8.875-11.059-1.294-2.088-2.422-4.207-3.347-6.333 1.897-2.332 6.984-8.514 10.263-11.792 3.692-3.692 9.541-8.465 11.784-10.267 4.513 1.96 8.995 4.793 13.208 8.329 0.076 0.064 0.152 0.131 0.229 0.195 0.59 0.5 1.174 1.016 1.752 1.542 0.104 0.095 0.208 0.188 0.312 0.283 0.65 0.601 1.293 1.215 1.927 1.848 0.635 0.635 1.25 1.279 1.852 1.932 0.093 0.1 0.182 0.2 0.272 0.3 0.533 0.585 1.055 1.175 1.56 1.771 0.06 0.071 0.122 0.142 0.181 0.213C70.27 45.433 73.105 49.921 75.066 54.441zM71.781 2.723l0.081-0.066 0.074-0.074C72.312 2.207 72.814 2 73.353 2c0.505 0 0.976 0.188 1.343 0.521l-2.826 2.825L70.362 3.84C71.168 3.216 71.676 2.807 71.781 2.723zM68.757 5.063l1.698 1.698-2.832 2.832-2.145-2.145C66.715 6.576 67.823 5.762 68.757 5.063zM63.809 8.608l2.4 2.399-2.832 2.832-2.983-2.982C61.58 10.106 62.729 9.347 63.809 8.608zM17.3 46.88l0.099-0.43-0.09-0.432-0.646-3.079c3.571-4.859 7.647-9.622 12.107-14.148 4.548-4.481 9.311-8.558 14.168-12.128l3.081 0.646 0.431 0.091 0.429-0.099c3.537-0.816 7.786-2.962 11.768-5.364l3.316 3.315L51.531 25.685c-2.15-1.254-4.3-2.331-6.416-3.185 0 0-8.116 6.394-12.877 11.155-4.2 4.199-11.155 12.877-11.155 12.877 0.854 2.115 1.931 4.266 3.185 6.417l-9.016 9.016-3.317-3.316C14.338 54.666 16.484 50.417 17.3 46.88zM10.855 60.395l2.984 2.984-2.833 2.832-2.4-2.4C9.345 62.729 10.104 61.582 10.855 60.395zM7.447 65.479l2.146 2.146L6.76 70.457l-1.7-1.699C5.76 67.824 6.574 66.715 7.447 65.479zM2.581 71.938l0.074-0.074 0.066-0.082c0.084-0.104 0.494-0.611 1.118-1.418l1.508 1.508L2.52 74.697C1.807 73.912 1.822 72.695 2.581 71.938zM23.747 95.938l-6.443-6.443L3.928 76.117l2.833-2.832 0.001 0.002 1.414-1.414-0.001-0.002 2.833-2.832 0.001 0.002 1.414-1.414-0.001-0.002 2.832-2.832 0.001 0.002 1.414-1.414-0.001-0.002 8.664-8.664c0.068 0.105 0.145 0.209 0.213 0.314 2.343 3.646 5.22 7.262 8.625 10.666 3.404 3.404 7.019 6.281 10.666 8.623 0.105 0.068 0.208 0.146 0.314 0.215l-8.664 8.664-0.001-0.002-1.414 1.414 0.001 0.002-2.833 2.832h0l-1.414 1.414h0l-2.832 2.832-0.001-0.002-1.414 1.414 0.001 0.002L23.747 95.938zM28.216 97.277l-0.082 0.066-0.074 0.074C27.685 97.793 27.182 98 26.644 98s-1.041-0.207-1.417-0.582l-0.066-0.066 2.833-2.834 1.642 1.643C28.829 96.783 28.321 97.193 28.216 97.277zM31.241 94.938l-1.833-1.834 2.832-2.832 2.28 2.279C33.283 93.424 32.174 94.236 31.241 94.938zM36.188 91.393l-2.535-2.535 2.833-2.832 3.117 3.117C38.417 89.895 37.269 90.652 36.188 91.393zM82.696 53.119l-0.099 0.43 0.09 0.432 0.646 3.08c-1.969 2.674-4.189 5.428-6.613 8.201l-2.346 0.471-0.593 0.119-0.429 0.428-1.415 1.414-4.247 4.248-1.414 1.414-0.429 0.428-0.118 0.594-0.47 2.346c-2.773 2.424-5.526 4.643-8.202 6.613l-3.08-0.646-0.432-0.09-0.429 0.098c-3.536 0.816-7.787 2.963-11.768 5.365l-3.45-3.451 9.016-9.016c2.15 1.254 4.301 2.33 6.416 3.184 0 0 8.679-6.955 12.878-11.154 5.548-5.547 11.154-12.877 11.154-12.877-0.854-2.115-1.932-4.265-3.185-6.416l10.431-10.431 3.451 3.45C85.658 45.333 83.512 49.583 82.696 53.119zM89.141 39.605l-3.117-3.117 2.832-2.833 2.535 2.534C90.651 37.271 89.893 38.417 89.141 39.605zM92.549 34.52l-2.279-2.279 2.832-2.832 1.834 1.833C94.235 32.175 93.422 33.284 92.549 34.52zM97.416 28.062l-0.074 0.074-0.066 0.081c-0.084 0.104-0.493 0.612-1.117 1.419l-1.643-1.642 2.834-2.833 0.066 0.066c0.375 0.376 0.582 0.879 0.582 1.417S97.791 27.687 97.416 28.062zM65.502 14.547l19.815 19.815 1.414-1.414L66.916 13.133 65.502 14.547zM69.748 10.3l19.815 19.815 1.414-1.414L71.162 8.886 69.748 10.3zM61.256 18.792L81.07 38.609l1.414-1.414L62.67 17.378 61.256 18.792zM43.466 68.266l1.932 0.518 1.554-5.801-1.932-0.518L43.466 68.266zM61.566 48.369l5.801-1.555-0.518-1.932-5.801 1.555L61.566 48.369zM36.881 52.912l-5.801 1.555 0.518 1.932 5.801-1.555L36.881 52.912zM38.607 81.072L18.792 61.258l-1.414 1.414 19.816 19.814L38.607 81.072zM53.076 48.306l-3.115 1.335h-0.016l-4.019-12.056-1.897 0.633 4.073 12.22L33.26 56.799l0.788 1.838 14.688-6.295 0.954 2.861 1.897-0.633-0.977-2.93h18.428v-2H53.648L53.076 48.306zM34.361 85.318L14.545 65.502l-1.414 1.414 19.816 19.816L34.361 85.318zM4.639 75.41l19.816 19.814 1.414-1.414L6.053 73.996 4.639 75.41zM30.115 89.564L10.299 69.75l-1.414 1.414 19.816 19.814L30.115 89.564zM35.424 63.025l1.414 1.414 4.247-4.244-1.414-1.414L35.424 63.025zM57.363 60.195l4.246 4.244 1.414-1.414-4.246-4.244L57.363 60.195zM64.049 55.648l7.242 1.939 0.518-1.932-7.242-1.939L64.049 55.648zM52.301 65.984l1.938 7.242 1.932-0.518-1.938-7.242L52.301 65.984z" fill="black"></path></g></g></svg></g></svg></g><g><rect width="77.59329502916103" height="4.779685330203016" y="67.46770361452062" x="243.3711849708389" fill="black"></rect><rect width="77.59329502916103" height="4.779685330203016" y="67.46770361452062" x="76.53311999999997" fill="black"></rect></g></svg></g><defs><mask></mask></defs></svg><rect width="395.52" height="155.27622868126906" fill="black" stroke="none" visibility="hidden"></rect></g></mask></svg><rect width="395.52" height="155.27622868126906" fill="black" stroke="none" visibility="hidden"></rect></g></mask></svg><rect width="395.52" height="155.27622868126906" fill="black" stroke="none" visibility="hidden"></rect></g></mask><linearGradient x1="0" x2="1" y1="0.5" y2="0.5" id="01d6c77a-3012-48de-b5ee-3d7c879f5bc8"><stop stop-color="#fff72e" offset="0"></stop><stop stop-color="#deae29" offset="1"></stop></linearGradient><rect width="395.52" height="155.27622868126906" fill="#ffffff" mask="url(#df201a9b-6154-4409-86b9-c4909e788a50)" data-fill-palette-color="accent"></rect></svg><rect width="395.52" height="155.27622868126906" fill="none" stroke="none" visibility="hidden"></rect></g></svg></g></svg>